<?xml version="1.0" encoding="UTF-8" standalone="no"?>
<!-- Created with Inkscape (http://www.inkscape.org/) -->

<svg
   xmlns:dc="http://purl.org/dc/elements/1.1/"
   xmlns:cc="http://creativecommons.org/ns#"
   xmlns:rdf="http://www.w3.org/1999/02/22-rdf-syntax-ns#"
   xmlns:svg="http://www.w3.org/2000/svg"
   xmlns="http://www.w3.org/2000/svg"
   version="1.1"
   width="300"
   height="153.9962"
   id="svg2538">
  <defs
     id="defs2540">
    <clipPath
       id="clipPath906">
      <path
         d="m 240.328,714.296 131.344,0 0,67.418 -131.344,0 L 240.328,714.296 Z"
         id="path908" />
    </clipPath>
    <clipPath
       id="clipPath1054">
      <path
         d="m 240.335,714.296 131.337,0 0,67.418 -131.337,0 L 240.335,714.296 Z"
         id="path1056" />
    </clipPath>
    <clipPath
       id="clipPath1070">
      <path
         d="m 240.328,714.296 131.344,0 0,67.418 -131.344,0 L 240.328,714.296 Z"
         id="path1072" />
    </clipPath>
  </defs>
  <metadata
     id="metadata2543">
    <rdf:RDF>
      <cc:Work
         rdf:about="">
        <dc:format>image/svg+xml</dc:format>
        <dc:type
           rdf:resource="http://purl.org/dc/dcmitype/StillImage" />
        <cc:license
           rdf:resource="" />
        <dc:title></dc:title>
      </cc:Work>
    </rdf:RDF>
  </metadata>
  <g
     transform="translate(-292.91436,-420.50222)"
     id="layer1">
    <g
       transform="matrix(1.8273601,0,0,1.8273601,-242.35368,302.89168)"
       id="g2161">
      <g
         transform="matrix(1.25,0,0,-1.25,-7.5,1041.5034)"
         id="g902">
        <g
           clip-path="url(#clipPath906)"
           id="g904">
          <g
             transform="translate(331.5966,758.2133)"
             id="g910">
            <path
               d="M 0,0 C 0,0 -0.756,1.667 -1.124,2.005 -1.491,2.343 -13.63,-8.502 -13.63,-8.502 l -5.053,-5.168 -0.122,-0.72 0.283,0.089 -0.174,-0.313 0.001,-0.029 c 0,0 0.459,0.328 1.458,0.743 l 2.99,0.933 c 7.626,4.02 9.64,4.661 15.209,7.727 C 1.83,-4.762 0.64,-1.299 0,0"
               id="path912"
               style="fill:#000000;fill-opacity:1;fill-rule:nonzero;stroke:none" />
          </g>
          <g
             transform="translate(331.133,756.3332)"
             id="g914">
            <path
               d="m 0,0 c -0.559,1.505 -1.189,2.555 -1.507,3.035 -1.557,-1.471 -10.764,-10.167 -20.424,-19.293 0.439,-0.028 2.03,2.71 8.886,6.622 6.162,3.516 11.108,5.885 12.994,6.837 C 0.696,-2.422 0.882,-2.376 0,0"
               id="path916"
               style="fill:#ffdd00;fill-opacity:1;fill-rule:nonzero;stroke:none" />
          </g>
          <g
             transform="translate(330.8491,761.3224)"
             id="g918">
            <path
               d="m 0,0 c -0.434,0.528 -0.861,0.076 -0.861,0.076 l -24.256,-22.848 c 0.262,-0.035 0.53,-0.05 0.802,-0.045 0.405,0.009 0.798,0.066 1.176,0.161 21.914,20.703 22.94,21.668 22.94,21.668 C -0.146,-0.916 0.366,-0.542 0,0"
               id="path920"
               style="fill:#000000;fill-opacity:1;fill-rule:nonzero;stroke:none" />
          </g>
          <g
             transform="translate(317.3833,745.2643)"
             id="g922">
            <path
               d="m 0,0 -0.235,0.246 -4.248,-1.379 c 0,0 -0.017,-0.012 -0.045,-0.032 l 0.534,0.746 1.074,2.783 -0.925,0.956 -6.964,2.238 -4.496,-0.093 -1.849,-0.568 -1.593,-1.799 0.248,-5.32 0.033,-0.146 6.635,-4.319 c 0.319,-0.054 0.647,-0.079 0.982,-0.072 1.156,0.025 2.219,0.421 3.086,1.076 l 0.478,0.667 c 0.002,-0.156 0.004,-0.257 0.004,-0.257 0,0 2.854,2.994 7.281,5.273"
               id="path924"
               style="fill:#000000;fill-opacity:1;fill-rule:nonzero;stroke:none" />
          </g>
          <g
             transform="translate(326.2583,768.9485)"
             id="g926">
            <path
               d="M 0,0 C 0,0 2.549,-3.662 2.844,-6.046 2.858,-6.722 2.22,-7.471 1.981,-7.761 1.742,-8.052 1.44,-9.218 3.315,-11.069 c 0.876,-0.892 0.832,-0.727 -0.495,-1.695 -1.327,-0.968 -8.528,-5.955 -9.969,-7.425 -1.441,-1.47 -5.694,-5.178 -5.694,-5.178 L -12.98,-22.255 0,0 Z"
               id="path928"
               style="fill:#000000;fill-opacity:1;fill-rule:nonzero;stroke:none" />
          </g>
          <g
             transform="translate(327.2434,760.0469)"
             id="g930">
            <path
               d="M 0,0 C 0,0 0.126,-1.291 1.295,-2.352 1.928,-2.855 1.649,-3.094 1.063,-3.546 0.478,-3.997 -8.031,-10.043 -11.847,-14.233 L -14.768,-16.702 0,0 Z"
               id="path932"
               style="fill:#000000;fill-opacity:1;fill-rule:nonzero;stroke:none" />
          </g>
          <g
             transform="translate(326.0808,767.2858)"
             id="g934">
            <path
               d="m 0,0 c -2.034,-3.524 -7.675,-13.325 -11.956,-20.766 l -1.829,-3.179 c 0,0 14.393,17.574 14.686,17.89 0.292,0.316 1.021,1.231 1.005,1.934 C 1.885,-3.218 0.587,-0.972 0,0"
               id="path936"
               style="fill:#000000;fill-opacity:1;fill-rule:nonzero;stroke:none" />
          </g>
          <g
             transform="translate(326.7588,769.6223)"
             id="g938">
            <path
               d="m 0,0 c -0.568,0.381 -0.846,-0.175 -0.846,-0.175 l -17.69,-30.626 c 1.126,0.409 2.079,1.19 2.725,2.198 l 0.011,-0.003 c 4.738,8.237 15.781,27.43 15.894,27.602 C 0.239,-0.784 0.507,-0.414 0,0"
               id="path940"
               style="fill:#000000;fill-opacity:1;fill-rule:nonzero;stroke:none" />
          </g>
          <g
             transform="translate(279.8164,755.8877)"
             id="g942">
            <path
               d="M 0,0 C 0.093,0.065 2.236,3.072 3.446,4.011 4.655,4.95 5.392,4.397 5.938,3.889 6.484,3.381 7.227,4.174 7.135,4.745 7.042,5.315 20.055,-9.697 20.055,-9.697 l 2.649,-3.159 -0.809,-1.978 L 0.015,-0.729 0,0 Z"
               id="path944"
               style="fill:#000000;fill-opacity:1;fill-rule:nonzero;stroke:none" />
          </g>
          <g
             transform="translate(286.9146,758.582)"
             id="g946">
            <path
               d="M 0,0 C 0,0 0.817,0.375 0.915,1.001 1.012,1.628 12.368,-11.396 12.368,-11.396 L 12.504,-11.871 0,0 Z"
               id="path948"
               style="fill:#006838;fill-opacity:1;fill-rule:nonzero;stroke:none" />
          </g>
          <g
             transform="translate(304.9982,739.8853)"
             id="g950">
            <path
               d="m 0,0 -0.435,1.387 -4.121,4.026 -15.503,13.534 c 0,0 -0.671,0.412 -1.186,-0.025 -0.474,-0.403 -1.85,-2.235 -2.575,-3.218 C -20.802,13.711 -6.57,4.325 0,0"
               id="path952"
               style="fill:#006838;fill-opacity:1;fill-rule:nonzero;stroke:none" />
          </g>
          <g
             transform="translate(303.6407,739.2988)"
             id="g954">
            <path
               d="m 0,0 c 0.845,-0.522 1.837,-0.815 2.893,-0.793 0.177,0.004 0.35,0.019 0.522,0.039 -6.363,4.188 -26.974,17.757 -27.152,17.889 -0.211,0.157 -0.565,0.447 -1.008,-0.034 -0.414,-0.544 0.124,-0.855 0.124,-0.855 L -0.006,-0.006 0,0 Z"
               id="path956"
               style="fill:#000000;fill-opacity:1;fill-rule:nonzero;stroke:none" />
          </g>
          <g
             transform="translate(283.123,766.5761)"
             id="g958">
            <path
               d="m 0,0 3.231,2.242 c 0,0 2.847,2.139 3.913,0.302 C 7.687,1.61 9.158,2.96 9.158,2.96 L 18.076,-16.063 16.094,-19.265 3.012,-3.908 0,0 Z"
               id="path960"
               style="fill:#000000;fill-opacity:1;fill-rule:nonzero;stroke:none" />
          </g>
          <g
             transform="translate(291.05,767.8836)"
             id="g962">
            <path
               d="m 0,0 c 0,0 0.894,0.077 1.614,0.616 0.72,0.539 8.031,-16.911 8.031,-16.911 L 9.291,-16.352 0,0 Z"
               id="path964"
               style="fill:#ffffff;fill-opacity:1;fill-rule:nonzero;stroke:none" />
          </g>
          <g
             transform="translate(304.7755,741.2572)"
             id="g966">
            <path
               d="m 0,0 -2.914,7.498 -12.317,18.931 c 0,0 -0.841,1.463 -1.672,1.03 -0.97,-0.506 -2.942,-1.939 -3.912,-2.657 C -18.713,22.29 -5.536,6.594 0,0"
               id="path968"
               style="fill:#ffffff;fill-opacity:1;fill-rule:nonzero;stroke:none" />
          </g>
          <g
             transform="translate(306.5339,738.5056)"
             id="g970">
            <path
               d="m 0,0 c 0.176,0.004 0.348,0.019 0.519,0.039 -4.69,5.585 -23.716,28.242 -23.854,28.427 -0.157,0.211 -0.412,0.59 -0.974,0.256 -0.553,-0.403 -0.127,-0.855 -0.127,-0.855 L -1.221,0.118 C -0.827,0.033 -0.419,-0.009 0,0"
               id="path972"
               style="fill:#000000;fill-opacity:1;fill-rule:nonzero;stroke:none" />
          </g>
          <g
             transform="translate(290.1357,775.418)"
             id="g974">
            <path
               d="M 0,0 C 0,0 1.612,1.255 7.391,2.151 8.292,2.238 8.95,1.616 9.14,0.753 9.157,0.678 9.322,-0.722 13.055,0.272 c 4.026,1.073 2.994,-21.985 2.994,-21.985 l 0.137,-6.591 -3.294,-0.62 L 0.013,-0.612 0,0 Z"
               id="path976"
               style="fill:#000000;fill-opacity:1;fill-rule:nonzero;stroke:none" />
          </g>
          <g
             transform="translate(299.4657,774.5114)"
             id="g978">
            <path
               d="M 0,0 C 0,0 1.107,-0.828 3.959,0.082 L 6.11,-20.259 6.669,-29.693 0,0 Z"
               id="path980"
               style="fill:#0072b5;fill-opacity:1;fill-rule:nonzero;stroke:none" />
          </g>
          <g
             transform="translate(306.3044,740.5934)"
             id="g982">
            <path
               d="m 0,0 -0.285,4.669 -8.044,30.275 c 0,0 -0.167,1.128 -1.385,0.928 -2.564,-0.421 -5.161,-1.555 -5.883,-1.886 C -14.086,30.682 -4.046,8.814 0,0"
               id="path984"
               style="fill:#0072b5;fill-opacity:1;fill-rule:nonzero;stroke:none" />
          </g>
          <g
             transform="translate(306.5339,738.5056)"
             id="g986">
            <path
               d="m 0,0 c 0.238,0.005 0.472,0.026 0.701,0.062 -3.001,6.534 -16.953,36.915 -17.038,37.133 -0.095,0.245 -0.241,0.678 -0.872,0.505 -0.64,-0.241 -0.349,-0.79 -0.349,-0.79 L -0.724,0.035 C -0.486,0.008 -0.245,-0.005 0,0"
               id="path988"
               style="fill:#000000;fill-opacity:1;fill-rule:nonzero;stroke:none" />
          </g>
          <g
             transform="translate(317.6643,776.8898)"
             id="g990">
            <path
               d="M 0,0 C 1.721,-0.602 6.6,-4.562 7.057,-5.569 7.393,-6.052 7.2,-6.546 6.768,-7.371 6.336,-8.197 6.098,-8.529 8.302,-10.483 8.718,-10.842 10,-11.475 8.544,-13.25 4.428,-18.267 4.383,-18.224 -0.998,-25.574 l -3.141,-3.419 -3.577,0.212 L 0,0 Z"
               id="path992"
               style="fill:#000000;fill-opacity:1;fill-rule:nonzero;stroke:none" />
          </g>
          <g
             transform="translate(323.6962,767.5965)"
             id="g994">
            <path
               d="m 0,0 -11.514,-18.791 -2.234,-5.668 16.225,21.892 c 0,0 -1.582,0.748 -1.847,1.723 C 0.365,0.13 0,0 0,0"
               id="path996"
               style="fill:#e31b23;fill-opacity:1;fill-rule:nonzero;stroke:none" />
          </g>
          <g
             transform="translate(323.6182,771.3389)"
             id="g998">
            <path
               d="m 0,0 c -1.176,1.447 -4.3,3.554 -5.469,4.318 -0.985,-3.727 -4.736,-18.062 -7.375,-28.105 l 1.261,0.026 2.567,6.217 c 7.442,13.179 7.952,14.29 8.332,15.08 C -0.315,-1.7 0.319,-0.464 0,0"
               id="path1000"
               style="fill:#e31b23;fill-opacity:1;fill-rule:nonzero;stroke:none" />
          </g>
          <g
             transform="translate(318.0914,777.713)"
             id="g1002">
            <path
               d="m 0,0 c -0.648,0.219 -0.77,-0.39 -0.77,-0.39 l -10.306,-38.783 c 0.527,0.059 1.031,0.194 1.501,0.398 1.941,7.408 9.858,37.612 9.929,37.831 C 0.436,-0.694 0.598,-0.266 0,0"
               id="path1004"
               style="fill:#000000;fill-opacity:1;fill-rule:nonzero;stroke:none" />
          </g>
          <g
             transform="translate(318.8334,772.5646)"
             id="g1006">
            <path
               d="m 0,0 -7.284,2.033 -5.948,-22.153 0.827,-11.391 5.222,1.83 c 0.477,2.492 2.665,11.444 3.884,15.593 C -1.63,-8.409 0.099,-3.583 0.99,-1.987 1.858,-0.375 0,0 0,0"
               id="path1008"
               style="fill:#000000;fill-opacity:1;fill-rule:nonzero;stroke:none" />
          </g>
          <g
             transform="translate(318.9247,771.2169)"
             id="g1010">
            <path
               d="m 0,0 c 0.004,0.007 0.007,0.014 0.01,0.021 -0.089,0.051 -0.212,0.101 -0.311,0.123 l -0.042,0.008 -0.015,0.006 -6.21,1.734 -4.416,-23.624 3.862,-1.357 c 0.602,2.806 1.687,7.193 2.724,10.723 C -2.737,-6.711 -0.971,-1.746 0,0"
               id="path1012"
               style="fill:#000000;fill-opacity:1;fill-rule:nonzero;stroke:none" />
          </g>
          <g
             transform="translate(310.6111,779.5506)"
             id="g1014">
            <path
               d="m 0,0 -6.831,1.17 -1.076,-0.67 2.626,-28.683 6.511,-0.03 c 0,0 2.315,13.936 3.521,20.33 C 6.054,-0.972 0,0 0,0"
               id="path1016"
               style="fill:#000000;fill-opacity:1;fill-rule:nonzero;stroke:none" />
          </g>
          <g
             transform="translate(313.8878,763.409)"
             id="g1018">
            <path
               d="m 0,0 c -0.271,-1.564 -0.54,-3.135 -0.789,-4.603 0.316,-0.328 0.712,-0.634 1.182,-0.804 0.082,0.287 0.164,0.571 0.246,0.849 0.369,1.255 0.743,2.476 1.112,3.635 C 0.953,-0.652 0.39,-0.315 0,0"
               id="path1020"
               style="fill:#ffffff;fill-opacity:1;fill-rule:nonzero;stroke:none" />
          </g>
          <g
             transform="translate(312.1191,753.0037)"
             id="g1022">
            <path
               d="m 0,0 c -0.174,-1.042 -0.278,-1.666 -0.278,-1.666 l -3.551,0.016 -0.349,-1.869 3.861,-1.357 c 0.285,1.326 0.677,3.005 1.121,4.779 L 0,0 Z"
               id="path1024"
               style="fill:#ffffff;fill-opacity:1;fill-rule:nonzero;stroke:none" />
          </g>
          <g
             transform="translate(318.624,771.361)"
             id="g1026">
            <path
               d="m 0,0 -0.043,0.008 -0.015,0.006 -3.111,0.869 c -0.026,-0.188 -0.056,-0.38 -0.093,-0.577 -0.186,-0.982 -0.397,-2.144 -0.622,-3.405 0.599,-0.39 1.482,-0.828 2.542,-0.941 0.648,1.769 1.221,3.137 1.643,3.896 0.003,0.007 0.007,0.014 0.01,0.021 C 0.221,-0.072 0.099,-0.022 0,0"
               id="path1028"
               style="fill:#ffffff;fill-opacity:1;fill-rule:nonzero;stroke:none" />
          </g>
          <g
             transform="translate(313.5834,776.4229)"
             id="g1030">
            <path
               d="m 0,0 c -1.138,1.638 -3.139,1.998 -3.159,2.002 l -6.446,1.104 c 0.19,-2.265 0.593,-6.994 1.051,-12.365 l 1.342,-14.66 4.504,-0.02 c 0.545,3.265 2.354,14.034 3.365,19.395 C 1.011,-2.666 0.79,-1.137 0,0"
               id="path1032"
               style="fill:#000000;fill-opacity:1;fill-rule:nonzero;stroke:none" />
          </g>
          <g
             transform="translate(304.9293,768.3419)"
             id="g1034">
            <path
               d="m 0,0 c 0.033,-0.389 0.067,-0.781 0.101,-1.178 l 0.521,-5.7 c 0.836,0.175 2.628,0.394 4.108,-0.35 L 4.618,-1.279 C 2.887,-0.491 0.956,-0.137 0,0"
               id="path1036"
               style="fill:#ffffff;fill-opacity:1;fill-rule:nonzero;stroke:none" />
          </g>
          <g
             transform="translate(303.9781,779.5284)"
             id="g1038">
            <path
               d="M 0,0 C 0.088,-1.049 0.222,-2.628 0.386,-4.553 1.34,-4.601 3.447,-4.779 5.438,-5.441 L 5.353,-0.917 0,0 Z"
               id="path1040"
               style="fill:#ffffff;fill-opacity:1;fill-rule:nonzero;stroke:none" />
          </g>
          <g
             transform="translate(312.82,763.9304)"
             id="g1042">
            <path
               d="M 0,0 C 0.359,2.071 0.718,4.112 1.036,5.866 0.76,8.16 -1.253,9.441 -3.404,10.157 L -3.272,3.132 C -1.783,2.455 -0.444,1.457 0,0"
               id="path1044"
               style="fill:#ffffff;fill-opacity:1;fill-rule:nonzero;stroke:none" />
          </g>
          <g
             transform="translate(309.6591,761.1139)"
             id="g1046">
            <path
               d="M 0,0 0.162,-8.625 1.216,-8.63 c 0.19,1.136 0.533,3.181 0.941,5.591 C 1.822,-1.408 0.98,-0.493 0,0"
               id="path1048"
               style="fill:#ffffff;fill-opacity:1;fill-rule:nonzero;stroke:none" />
          </g>
        </g>
      </g>
      <g
         transform="matrix(1.25,0,0,-1.25,-7.5,1041.5034)"
         id="g1050">
        <g
           clip-path="url(#clipPath1054)"
           id="g1052">
          <g
             transform="translate(306.2679,738.5076)"
             id="g1058">
            <path
               d="m 0,0 c 0.088,-0.003 0.177,-0.004 0.266,-0.002 0.32,0.007 0.633,0.044 0.937,0.105 -0.62,7.239 -3.603,42.099 -3.61,42.335 -0.007,0.262 10e-4,0.72 -0.651,0.769 -0.684,-0.013 -0.594,-0.628 -0.594,-0.628 L 0,0 Z"
               id="path1060"
               style="fill:#000000;fill-opacity:1;fill-rule:nonzero;stroke:none" />
          </g>
          <g
             transform="translate(298.2211,741.02)"
             id="g1062">
            <path
               d="M 0,0 C -1.194,0 -2.246,0.602 -2.873,1.518 L -2.878,1.516 -2.88,1.513 c -2.444,3.213 -7.033,5.379 -12.296,5.379 -1.277,0 -2.514,-0.13 -3.691,-0.369 l -0.002,0.006 c -5.188,-0.946 -11.614,-1.506 -18.577,-1.506 -7.825,0 -14.94,0.701 -20.413,1.868 l -0.005,-0.036 c -0.018,-0.194 -0.03,-0.389 -0.03,-0.586 0,-4.292 4.281,-7.944 10.456,-9.463 1.212,-4.061 6.454,-7.215 12.926,-7.622 l -10e-4,0 0.385,-0.137 c 1.968,-0.638 4.561,-0.956 7.383,-0.81 0.318,0.017 0.632,0.039 0.941,0.067 l 0,0 0.053,-0.084 c 1.126,-1.845 4.987,-2.743 9.427,-2.114 l 0,0 0.059,-0.069 c 1.408,-1.582 4.774,-1.718 8.173,-0.277 l 0,-10e-4 0.062,-0.046 c 0.889,-0.759 2.597,-0.839 4.588,-0.302 0.235,1.693 1.684,2.997 3.442,2.997 l 7.859,0 0,3.049 0,4.246 L 7.859,0 0,0 Z"
               id="path1064"
               style="fill:#000000;fill-opacity:1;fill-rule:nonzero;stroke:none" />
          </g>
        </g>
      </g>
      <g
         transform="matrix(1.25,0,0,-1.25,-7.5,1041.5034)"
         id="g1066">
        <g
           clip-path="url(#clipPath1070)"
           id="g1068">
          <g
             transform="translate(313.7789,741.02)"
             id="g1074">
            <path
               d="M 0,0 C 1.194,0 2.246,0.602 2.873,1.518 L 2.878,1.516 2.88,1.513 c 2.444,3.213 7.033,5.379 12.296,5.379 1.277,0 2.513,-0.13 3.691,-0.369 l 0.002,0.006 c 5.188,-0.946 11.614,-1.506 18.577,-1.506 7.825,0 14.94,0.701 20.413,1.868 l 0.005,-0.036 c 0.018,-0.194 0.03,-0.389 0.03,-0.586 0,-4.292 -4.282,-7.944 -10.456,-9.463 -1.212,-4.061 -6.454,-7.215 -12.926,-7.622 l 10e-4,0 -0.385,-0.137 c -1.968,-0.638 -4.561,-0.956 -7.384,-0.81 -0.317,0.017 -0.631,0.039 -0.94,0.067 l 0,0 -0.053,-0.084 c -1.126,-1.845 -4.987,-2.743 -9.427,-2.114 l 0,0 -0.059,-0.069 c -1.409,-1.582 -5.388,-1.528 -8.984,-0.297 -1.551,0.523 -2.452,1.138 -4.082,2.515 -0.235,1.693 -1.442,0.153 -3.199,0.153 l -7.86,0 0,3.049 0,4.246 L -7.86,0 0,0 Z"
               id="path1076"
               style="fill:#000000;fill-opacity:1;fill-rule:nonzero;stroke:none" />
          </g>
          <g
             transform="translate(368.8493,746.251)"
             id="g1078">
            <path
               d="m 0,0 c -4.896,-0.955 -10.781,-1.607 -17.124,-1.809 -7.514,-0.239 -14.345,0.895 -19.76,1.809 -1.143,0.118 -2.354,0.266 -3.522,0.266 -4.943,0 -9.307,-2.445 -12.17,-5.194 -10e-4,0.001 -10e-4,0.001 -0.002,0.001 -0.626,-0.605 -1.477,-0.979 -2.417,-0.979 l 0,0 -1.817,0 c -0.175,-1.15 -0.299,-2.469 -0.357,-3.892 l 10e-4,0 c -0.026,-0.611 -0.039,-1.241 -0.039,-1.886 0,-1.349 0.058,-2.635 0.164,-3.814 l 0.975,0 0,-0.007 4.809,0.826 c -0.19,0.572 0.542,-1.284 0.45,-0.731 0.658,-1.122 1.963,-1.92 2.982,-2.318 2.803,-1.095 6.012,-1.63 7.363,-0.424 -0.617,0.423 -1.234,0.915 -1.834,1.468 -1.275,1.174 -2.27,2.449 -2.929,3.654 l 0.012,0 c 0.941,-1.471 3.098,-2.986 5.841,-3.933 3.659,-1.263 7.122,-1.089 8.314,0.305 -1.058,0.524 -2.146,1.228 -3.193,2.096 -0.498,0.413 -0.96,0.843 -1.385,1.281 1.473,-1.119 4.029,-2.025 7.002,-2.348 2.27,-0.246 4.377,-0.109 5.994,0.316 -0.5,0.098 -1.003,0.215 -1.508,0.357 -1.61,0.453 -3.085,1.093 -4.378,1.864 1.99,-0.898 4.407,-1.426 7.017,-1.426 5.981,0 10.96,2.765 12.052,6.425 -0.001,0 -0.003,10e-4 -0.005,10e-4 0.002,0.005 0.004,0.01 0.005,0.016 -1.431,0.046 -2.937,0.254 -4.469,0.634 7.122,0.032 12.992,3.253 13.928,7.426 -0.001,0 -0.003,-0.001 -0.004,-0.001 C -0.003,-0.011 -0.001,-0.006 0,0"
               id="path1080"
               style="fill:#a5925c;fill-opacity:1;fill-rule:nonzero;stroke:none" />
          </g>
          <g
             transform="translate(316.6913,749.4188)"
             id="g1082">
            <path
               d="m 0,0 c -1.511,4.295 -3.694,6.661 -6.145,6.661 l -8.055,0 c -2.453,0 -4.635,-2.366 -6.146,-6.661 -1.345,-3.827 -2.086,-8.883 -2.086,-14.236 0,-5.244 0.714,-10.223 2.013,-14.02 1.187,-3.476 2.756,-5.693 4.586,-6.514 0,0 0.856,-0.337 1.831,-0.353 l 7.658,0 c 0,0 -0.083,0 0,0 0.941,0 1.831,0.353 1.831,0.353 1.829,0.821 3.398,3.038 4.587,6.514 1.298,3.797 2.013,8.776 2.013,14.02 C 2.087,-8.883 1.345,-3.827 0,0"
               id="path1084"
               style="fill:#000000;fill-opacity:1;fill-rule:nonzero;stroke:none" />
          </g>
          <g
             transform="translate(310.4796,754.9799)"
             id="g1086">
            <path
               d="m 0,0 -8.578,0 c -0.343,0 -0.679,-0.07 -1.009,-0.195 3.528,-1.341 6.244,-9.604 6.244,-19.602 0,-9.998 -2.717,-18.257 -6.244,-19.598 0.258,-0.097 0.518,-0.162 0.783,-0.184 l 0,-0.005 0.075,0 c 0.05,-0.003 0.1,-0.01 0.151,-0.01 0.051,0 0.1,0.007 0.151,0.01 l 8.276,0 c 0.05,-0.003 0.101,-0.01 0.151,-0.01 0.051,0 0.101,0.007 0.152,0.01 l 0.073,0 0,0.005 c 3.902,0.325 7.03,9.054 7.03,19.782 C 7.255,-8.864 4.007,0 0,0"
               id="path1088"
               style="fill:#a5925c;fill-opacity:1;fill-rule:nonzero;stroke:none" />
          </g>
          <g
             transform="translate(308.1825,735.4755)"
             id="g1090">
            <path
               d="m 0,0 c 0,-10.875 -2.935,-19.691 -6.555,-19.691 -3.62,0 -6.554,8.816 -6.554,19.691 0,10.875 2.934,19.691 6.554,19.691 C -2.935,19.691 0,10.875 0,0"
               id="path1092"
               style="fill:#000000;fill-opacity:1;fill-rule:nonzero;stroke:none" />
          </g>
          <g
             transform="translate(306.5475,749.5795)"
             id="g1094">
            <path
               d="m 0,0 c -1.365,3.829 -3.19,5.937 -5.141,5.937 -0.287,0 -0.587,-0.052 -0.892,-0.156 L -6.017,5.612 C -5.85,5.59 -5.686,5.553 -5.523,5.504 -8.86,4.59 -11.474,-3.839 -11.474,-14.104 c 0,-10.374 2.67,-18.874 6.058,-19.635 -0.313,-0.108 -0.632,-0.165 -0.956,-0.166 l -0.038,-0.166 c 0.423,-0.206 0.85,-0.311 1.269,-0.311 1.951,0 3.776,2.109 5.141,5.937 1.355,3.801 2.101,8.851 2.101,14.223 C 2.101,-8.851 1.355,-3.8 0,0"
               id="path1096"
               style="fill:#000000;fill-opacity:1;fill-rule:nonzero;stroke:none" />
          </g>
          <g
             transform="translate(307.6703,735.4755)"
             id="g1098">
            <path
               d="m 0,0 c 0,-10.393 -2.82,-18.819 -6.299,-18.819 -3.478,0 -6.298,8.426 -6.298,18.819 0,10.394 2.82,18.819 6.298,18.819 C -2.82,18.819 0,10.394 0,0"
               id="path1100"
               style="fill:#a5925c;fill-opacity:1;fill-rule:nonzero;stroke:none" />
          </g>
          <g
             transform="translate(306.7831,735.7542)"
             id="g1102">
            <path
               d="m 0,0 c 0,-10.104 -2.696,-18.295 -6.021,-18.295 -3.324,0 -6.02,8.191 -6.02,18.295 0,10.104 2.696,18.295 6.02,18.295 C -2.696,18.295 0,10.104 0,0"
               id="path1104"
               style="fill:#000000;fill-opacity:1;fill-rule:nonzero;stroke:none" />
          </g>
          <g
             transform="translate(303.4057,716.6568)"
             id="g1106">
            <path
               d="m 0,0 6.691,0.012 c 0,0 3.528,-0.474 5.391,4.195 L 12.366,4.017 11.137,0.803 9.665,-0.641 7.647,-1.714 1.214,-1.965 -1.654,-1.781 -1.882,-1.094 0,0 Z"
               id="path1108"
               style="fill:#000000;fill-opacity:1;fill-rule:nonzero;stroke:none" />
          </g>
          <g
             transform="translate(305.7787,734.9457)"
             id="g1110">
            <path
               d="m 0,0 c 0,9.913 -2.334,17.949 -5.212,17.949 -2.878,0 -5.212,-8.036 -5.212,-17.949 0,-8.087 1.553,-14.923 3.688,-17.168 l -0.001,0 c 0,0 0.07,-0.078 0.197,-0.192 0.025,-0.023 0.051,-0.045 0.076,-0.066 0.018,-0.015 0.036,-0.03 0.055,-0.046 0.012,-0.009 0.023,-0.019 0.035,-0.028 0.341,-0.275 0.903,-0.638 1.601,-0.758 l 0.01,0.377 C -2.095,-17.097 0,-9.392 0,0"
               id="path1112"
               style="fill:#a5925c;fill-opacity:1;fill-rule:nonzero;stroke:none" />
          </g>
          <g
             transform="translate(303.0979,735.4755)"
             id="g1114">
            <path
               d="m 0,0 c 0,-5.345 -1.245,-9.679 -2.782,-9.679 -1.536,0 -2.781,4.334 -2.781,9.679 0,5.346 1.245,9.679 2.781,9.679 C -1.245,9.679 0,5.346 0,0"
               id="path1116"
               style="fill:#000000;fill-opacity:1;fill-rule:nonzero;stroke:none" />
          </g>
          <g
             transform="translate(299.83,740.7499)"
             id="g1118">
            <path
               d="m 0,0 -0.387,0 -0.869,0 -1.217,0 c -1.896,0 -2.805,0.952 -2.989,1.198 -0.769,1.028 -2.062,1.864 -2.337,2.035 -2.434,1.423 -5.337,2.409 -8.475,2.409 -1.168,0 -2.378,-0.149 -3.522,-0.266 -5.415,-0.914 -12.246,-2.048 -19.759,-1.809 -6.344,0.202 -12.228,0.854 -17.124,1.809 0.939,-4.186 6.841,-7.414 13.993,-7.427 -1.555,-0.39 -3.083,-0.603 -4.535,-0.65 1.093,-3.66 6.072,-6.425 12.052,-6.425 2.61,0 5.028,0.528 7.017,1.426 -1.292,-0.771 -2.768,-1.411 -4.377,-1.864 -0.506,-0.142 -1.009,-0.259 -1.508,-0.357 1.616,-0.425 3.723,-0.562 5.993,-0.316 2.973,0.323 5.53,1.229 7.003,2.348 -0.426,-0.438 -0.888,-0.868 -1.386,-1.281 -1.047,-0.867 -2.135,-1.572 -3.192,-2.096 1.191,-1.394 4.655,-1.568 8.313,-0.305 2.744,0.947 4.9,2.462 5.842,3.933 l 0.011,0 c -0.658,-1.205 -1.654,-2.48 -2.928,-3.654 -0.6,-0.553 -1.218,-1.045 -1.835,-1.468 1.351,-1.206 4.313,-0.916 7.038,0.797 1.432,0.9 2.54,2.029 3.197,3.151 -0.092,-0.553 -0.229,-1.12 -0.419,-1.692 -0.332,-1.002 -0.782,-1.903 -1.3,-2.659 0.504,-0.225 1.18,-0.191 1.94,0.06 l -0.001,0.004 c 0.306,0.108 0.595,0.249 0.865,0.418 0.103,0.075 0.956,0.694 1.317,1.116 0.385,0.45 0.598,1.015 1.758,1.016 l 0,0 1.821,0 0,0.006 c 0.707,0.113 1.271,2.428 1.271,5.268 C 1.271,-2.433 0.707,-0.113 0,0"
               id="path1120"
               style="fill:#a5925c;fill-opacity:1;fill-rule:nonzero;stroke:none" />
          </g>
          <g
             transform="translate(294.368,741.948)"
             id="g1122">
            <path
               d="m 0,0 c 0.184,-0.246 1.093,-1.198 2.989,-1.198 l 2.086,0 -0.302,0.9 -1.468,-0.032 c 0,0 -1.57,-0.151 -2.423,1.032 -1.22,0.636 -3.272,1.366 -3.272,1.366 0,0 1.525,-0.913 2.39,-2.068"
               id="path1124"
               style="fill:#000000;fill-opacity:1;fill-rule:nonzero;stroke:none" />
          </g>
          <g
             transform="translate(294.9232,728.0614)"
             id="g1126">
            <path
               d="m 0,0 c 0,0 0.943,0.673 1.328,1.124 0.385,0.45 0.598,1.016 1.761,1.016 1.162,0 1.662,-1.103 1.662,-1.103 0,0 -1.612,0.159 -2.503,-1.012 -0.078,-0.1 -0.904,-1.29 -2.572,-1.702 -0.645,0.402 -0.364,0.673 -0.364,0.673"
               id="path1128"
               style="fill:#000000;fill-opacity:1;fill-rule:nonzero;stroke:none" />
          </g>
          <g
             transform="translate(251.1115,743.5875)"
             id="g1130">
            <path
               d="m 0,0 c 0,0 12.801,-1.801 28.483,-0.137 11.305,1.035 13.434,-2.804 13.434,-2.804 0,0 -4.203,2.778 -13.709,1.599 C 18.702,-2.52 4.546,-1.875 0,0"
               id="path1132"
               style="fill:#000000;fill-opacity:1;fill-rule:nonzero;stroke:none" />
          </g>
          <g
             transform="translate(361.6803,743.5875)"
             id="g1134">
            <path
               d="m 0,0 c 0,0 -12.802,-1.801 -28.483,-0.137 -11.306,1.035 -13.434,-2.804 -13.434,-2.804 0,0 4.203,2.778 13.709,1.599 C -18.702,-2.52 -4.546,-1.875 0,0"
               id="path1136"
               style="fill:#000000;fill-opacity:1;fill-rule:nonzero;stroke:none" />
          </g>
          <path
             d="m 259.483,733.99 -0.993,0 0,5.304 0.993,0 L 259.483,733.99 Z"
             id="path1138"
             style="fill:#000000;fill-opacity:1;fill-rule:nonzero;stroke:none" />
          <g
             transform="translate(263.7471,733.9902)"
             id="g1140">
            <path
               d="m 0,0 -0.884,0 -1.708,2.954 0,-2.954 -0.983,0 0,5.304 0.881,0 1.703,-2.939 0,2.939 L 0,5.304 0,0 Z"
               id="path1142"
               style="fill:#000000;fill-opacity:1;fill-rule:nonzero;stroke:none" />
          </g>
          <path
             d="m 269.48,733.99 -0.993,0 0,5.304 0.993,0 L 269.48,733.99 Z"
             id="path1144"
             style="fill:#000000;fill-opacity:1;fill-rule:nonzero;stroke:none" />
          <g
             transform="translate(272.2625,735.9877)"
             id="g1146">
            <path
               d="M 0,0 -0.482,1.936 -0.969,0 0,0 z m 1.514,-1.997 -1.017,0 -0.269,1.075 -1.43,0 -0.273,-1.075 -1.017,0 1.456,5.303 1.098,0 L 1.514,-1.997 Z"
               id="path1148"
               style="fill:#000000;fill-opacity:1;fill-rule:nonzero;stroke:none" />
          </g>
          <g
             transform="translate(277.6392,733.9902)"
             id="g1150">
            <path
               d="m 0,0 -0.884,0 -1.708,2.954 0,-2.954 -0.983,0 0,5.304 0.881,0 1.703,-2.939 0,2.939 L 0,5.304 0,0 Z"
               id="path1152"
               style="fill:#000000;fill-opacity:1;fill-rule:nonzero;stroke:none" />
          </g>
          <g
             transform="translate(280.4169,735.9877)"
             id="g1154">
            <path
               d="M 0,0 -0.482,1.936 -0.969,0 0,0 z m 1.513,-1.997 -1.016,0 -0.269,1.075 -1.43,0 -0.273,-1.075 -1.017,0 1.456,5.303 1.098,0 L 1.513,-1.997 Z"
               id="path1156"
               style="fill:#000000;fill-opacity:1;fill-rule:nonzero;stroke:none" />
          </g>
          <g
             transform="translate(293.1745,733.9902)"
             id="g1158">
            <path
               d="m 0,0 -2.501,0 0,5.304 0.993,0 0,-4.034 L 0,1.27 0,0 Z"
               id="path1160"
               style="fill:#000000;fill-opacity:1;fill-rule:nonzero;stroke:none" />
          </g>
          <path
             d="m 294.527,733.99 -0.993,0 0,5.304 0.993,0 L 294.527,733.99 Z"
             id="path1162"
             style="fill:#000000;fill-opacity:1;fill-rule:nonzero;stroke:none" />
          <g
             transform="translate(287.7767,735.0252)"
             id="g1164">
            <path
               d="m 0,0 c -0.869,0 -1.574,0.727 -1.574,1.623 0,0.896 0.705,1.622 1.574,1.622 0.869,0 1.574,-0.726 1.574,-1.622 C 1.574,0.727 0.869,0 0,0 m 0,4.269 c -1.418,0 -2.567,-1.185 -2.567,-2.646 0,-1.462 1.149,-2.647 2.567,-2.647 1.418,0 2.567,1.185 2.567,2.647 0,1.461 -1.149,2.646 -2.567,2.646"
               id="path1166"
               style="fill:#000000;fill-opacity:1;fill-rule:nonzero;stroke:none" />
          </g>
          <g
             transform="translate(265.3976,735.0309)"
             id="g1168">
            <path
               d="M 0,0 0,3.245 C 0.869,3.245 1.574,2.519 1.574,1.623 1.574,0.727 0.869,0 0,0 m 0,4.269 -0.993,0 0,-5.304 0.993,0 c 1.418,0 2.567,1.196 2.567,2.658 0,1.461 -1.149,2.646 -2.567,2.646"
               id="path1170"
               style="fill:#000000;fill-opacity:1;fill-rule:nonzero;stroke:none" />
          </g>
          <g
             transform="translate(298.1192,736.2127)"
             id="g1172">
            <path
               d="M 0,0 C -0.003,0.007 -0.007,0.014 -0.011,0.022 L -0.013,0.025 C -0.015,0.031 -0.018,0.036 -0.02,0.04 l -0.012,0.023 0,0 c -0.077,0.145 -0.171,0.276 -0.278,0.388 -0.255,0.25 -0.569,0.405 -0.9,0.514 -0.279,0.092 -0.649,0.19 -0.741,0.52 -0.061,0.218 0.027,0.46 0.204,0.591 0.169,0.125 0.386,0.133 0.582,0.088 C -0.76,2.071 -0.403,1.791 -0.1,1.513 l 0.05,-0.046 0,1.253 -0.011,0.01 C -0.559,3.157 -1.312,3.299 -1.933,3.131 -2.221,3.053 -2.486,2.898 -2.676,2.66 -2.868,2.42 -2.973,2.119 -2.999,1.811 c -0.043,-0.505 0.117,-1.04 0.465,-1.404 0.149,-0.141 0.327,-0.241 0.515,-0.315 0.206,-0.08 0.425,-0.116 0.632,-0.193 0.182,-0.068 0.361,-0.175 0.448,-0.362 0.084,-0.18 0.074,-0.394 -0.003,-0.574 -0.163,-0.305 -0.525,-0.321 -0.815,-0.234 -0.431,0.129 -0.811,0.427 -1.145,0.724 l -0.05,0.044 0,-1.254 0.013,-0.009 c 0.545,-0.393 1.24,-0.673 1.912,-0.539 0.307,0.061 0.593,0.207 0.802,0.448 0.211,0.243 0.335,0.556 0.375,0.877 0.039,0.311 0,0.635 -0.124,0.922"
               id="path1174"
               style="fill:#000000;fill-opacity:1;fill-rule:nonzero;stroke:none" />
          </g>
          <g
             transform="translate(283.5228,736.8915)"
             id="g1176">
            <path
               d="m 0,0 c -0.007,0 -0.014,0.001 -0.021,0.001 l 0,-0.001 -0.294,0 0,0.114 0,1.27 0,0.114 0.294,0 0,-0.002 C -0.014,1.497 -0.007,1.498 0,1.498 0.329,1.498 0.596,1.162 0.596,0.749 0.596,0.335 0.329,0 0,0 m -0.021,2.403 -0.291,0 -0.334,0 -0.659,0 0,-5.304 0.993,0 0,1.996 0.272,0 0,0.001 c 0.006,0 0.012,-0.001 0.019,-0.001 0.885,0 1.604,0.741 1.604,1.654 0,0.913 -0.719,1.654 -1.604,1.654"
               id="path1178"
               style="fill:#000000;fill-opacity:1;fill-rule:nonzero;stroke:none" />
          </g>
          <g
             transform="translate(331.9796,733.9913)"
             id="g1180">
            <path
               d="m 0,0 -2.56,0 0,5.304 2.518,0 0,-1.064 -1.494,0 0,-0.972 1.426,0 0,-1.067 -1.426,0 0,-1.133 L 0,1.068 0,0 Z"
               id="path1182"
               style="fill:#000000;fill-opacity:1;fill-rule:nonzero;stroke:none" />
          </g>
          <g
             transform="translate(335.2447,733.9913)"
             id="g1184">
            <path
               d="m 0,0 -2.559,0 0,5.304 2.517,0 0,-1.064 -1.494,0 0,-0.972 1.426,0 0,-1.067 -1.426,0 0,-1.133 L 0,1.068 0,0 Z"
               id="path1186"
               style="fill:#000000;fill-opacity:1;fill-rule:nonzero;stroke:none" />
          </g>
          <g
             transform="translate(345.5634,739.2953)"
             id="g1188">
            <path
               d="m 0,0 -1.47,-5.373 -0.592,0 -0.882,3.127 -0.904,-3.127 -0.597,0 L -5.885,0 -4.825,0 -4.12,-2.939 -3.311,0 -2.579,0 -1.785,-2.939 -1.048,0 0,0 Z"
               id="path1190"
               style="fill:#000000;fill-opacity:1;fill-rule:nonzero;stroke:none" />
          </g>
          <g
             transform="translate(347.8627,735.9888)"
             id="g1192">
            <path
               d="M 0,0 -0.497,1.936 -0.999,0 0,0 z m 1.56,-1.998 -1.048,0 -0.277,1.076 -1.474,0 -0.282,-1.076 -1.048,0 1.501,5.304 1.132,0 L 1.56,-1.998 Z"
               id="path1194"
               style="fill:#000000;fill-opacity:1;fill-rule:nonzero;stroke:none" />
          </g>
          <g
             transform="translate(352.7117,739.2953)"
             id="g1196">
            <path
               d="m 0,0 -1.33,-2.874 0,-2.43 -1.024,0 0,2.399 L -3.708,0 -2.645,0 -1.866,-1.668 -1.085,0 0,0 Z"
               id="path1198"
               style="fill:#000000;fill-opacity:1;fill-rule:nonzero;stroke:none" />
          </g>
          <g
             transform="translate(336.9744,735.0297)"
             id="g1200">
            <path
               d="M 0,0 0,3.245 C 0.896,3.245 1.623,2.519 1.623,1.623 1.623,0.726 0.896,0 0,0 m 0,4.269 -1.024,0 0,-5.304 1.024,0 c 1.462,0 2.646,1.196 2.646,2.658 0,1.461 -1.184,2.646 -2.646,2.646"
               id="path1202"
               style="fill:#000000;fill-opacity:1;fill-rule:nonzero;stroke:none" />
          </g>
          <g
             transform="translate(325.2242,736.2115)"
             id="g1204">
            <path
               d="M 0,0 C -0.004,0.007 -0.008,0.014 -0.012,0.022 L -0.013,0.025 C -0.016,0.031 -0.019,0.036 -0.021,0.04 l -0.012,0.023 0,0 c -0.08,0.145 -0.176,0.276 -0.287,0.388 -0.263,0.25 -0.586,0.405 -0.928,0.514 -0.288,0.092 -0.669,0.19 -0.763,0.52 -0.063,0.218 0.028,0.459 0.21,0.591 0.174,0.124 0.398,0.133 0.6,0.088 0.417,-0.093 0.785,-0.373 1.098,-0.651 l 0.051,-0.046 0,1.254 -0.011,0.009 C -0.577,3.156 -1.353,3.299 -1.993,3.131 -2.29,3.053 -2.563,2.898 -2.759,2.66 -2.956,2.42 -3.065,2.119 -3.092,1.811 c -0.044,-0.505 0.12,-1.04 0.479,-1.404 0.154,-0.141 0.338,-0.241 0.532,-0.315 0.212,-0.08 0.438,-0.116 0.651,-0.193 0.188,-0.068 0.372,-0.175 0.462,-0.362 0.087,-0.18 0.076,-0.394 -0.004,-0.574 -0.167,-0.305 -0.541,-0.321 -0.84,-0.234 -0.443,0.129 -0.835,0.427 -1.18,0.724 l -0.051,0.044 0,-1.254 0.013,-0.009 c 0.561,-0.393 1.279,-0.673 1.972,-0.539 0.316,0.061 0.61,0.207 0.826,0.449 0.217,0.242 0.345,0.556 0.387,0.876 0.04,0.311 -0.001,0.635 -0.128,0.922"
               id="path1206"
               style="fill:#000000;fill-opacity:1;fill-rule:nonzero;stroke:none" />
          </g>
          <g
             transform="translate(327.3365,736.8904)"
             id="g1208">
            <path
               d="m 0,0 c -0.007,0 -0.014,0.001 -0.021,0.001 l 0,-0.001 -0.304,0 0,0.114 0,1.27 0,0.113 0.304,0 0,-0.001 c 0.007,0 0.014,0.001 0.021,0.001 0.339,0 0.614,-0.335 0.614,-0.748 C 0.614,0.335 0.339,0 0,0 m -0.022,2.402 -0.299,0 -0.345,0 -0.679,0 0,-5.304 1.024,0 0,1.997 0.279,0 0,0.001 c 0.007,0 0.013,-0.001 0.02,-0.001 0.913,0 1.654,0.74 1.654,1.654 0,0.913 -0.741,1.653 -1.654,1.653"
               id="path1210"
               style="fill:#000000;fill-opacity:1;fill-rule:nonzero;stroke:none" />
          </g>
          <g
             transform="translate(331.9796,733.9913)"
             id="g1212">
            <path
               d="m 0,0 -2.56,0 0,5.304 2.518,0 0,-1.064 -1.494,0 0,-0.972 1.426,0 0,-1.067 -1.426,0 0,-1.133 L 0,1.068 0,0 Z"
               id="path1214"
               style="fill:#000000;fill-opacity:1;fill-rule:nonzero;stroke:none" />
          </g>
          <g
             transform="translate(335.2447,733.9913)"
             id="g1216">
            <path
               d="m 0,0 -2.559,0 0,5.304 2.517,0 0,-1.064 -1.494,0 0,-0.972 1.426,0 0,-1.067 -1.426,0 0,-1.133 L 0,1.068 0,0 Z"
               id="path1218"
               style="fill:#000000;fill-opacity:1;fill-rule:nonzero;stroke:none" />
          </g>
          <g
             transform="translate(345.5634,739.2953)"
             id="g1220">
            <path
               d="m 0,0 -1.47,-5.373 -0.592,0 -0.882,3.127 -0.904,-3.127 -0.597,0 L -5.885,0 -4.825,0 -4.12,-2.939 -3.311,0 -2.579,0 -1.785,-2.939 -1.048,0 0,0 Z"
               id="path1222"
               style="fill:#000000;fill-opacity:1;fill-rule:nonzero;stroke:none" />
          </g>
          <g
             transform="translate(347.8627,735.9888)"
             id="g1224">
            <path
               d="M 0,0 -0.497,1.936 -0.999,0 0,0 z m 1.56,-1.998 -1.048,0 -0.277,1.076 -1.474,0 -0.282,-1.076 -1.048,0 1.501,5.304 1.132,0 L 1.56,-1.998 Z"
               id="path1226"
               style="fill:#000000;fill-opacity:1;fill-rule:nonzero;stroke:none" />
          </g>
          <g
             transform="translate(352.7117,739.2953)"
             id="g1228">
            <path
               d="m 0,0 -1.33,-2.874 0,-2.43 -1.024,0 0,2.399 L -3.708,0 -2.645,0 -1.866,-1.668 -1.085,0 0,0 Z"
               id="path1230"
               style="fill:#000000;fill-opacity:1;fill-rule:nonzero;stroke:none" />
          </g>
          <g
             transform="translate(336.9744,735.0297)"
             id="g1232">
            <path
               d="M 0,0 0,3.245 C 0.896,3.245 1.623,2.519 1.623,1.623 1.623,0.726 0.896,0 0,0 m 0,4.269 -1.024,0 0,-5.304 1.024,0 c 1.462,0 2.646,1.196 2.646,2.658 0,1.461 -1.184,2.646 -2.646,2.646"
               id="path1234"
               style="fill:#000000;fill-opacity:1;fill-rule:nonzero;stroke:none" />
          </g>
          <g
             transform="translate(325.2242,736.2115)"
             id="g1236">
            <path
               d="M 0,0 C -0.004,0.007 -0.008,0.014 -0.012,0.022 L -0.013,0.025 C -0.016,0.031 -0.019,0.036 -0.021,0.04 l -0.012,0.023 0,0 c -0.08,0.145 -0.176,0.276 -0.287,0.388 -0.263,0.25 -0.586,0.405 -0.928,0.514 -0.288,0.092 -0.669,0.19 -0.763,0.52 -0.063,0.218 0.028,0.459 0.21,0.591 0.174,0.124 0.398,0.133 0.6,0.088 0.417,-0.093 0.785,-0.373 1.098,-0.651 l 0.051,-0.046 0,1.254 -0.011,0.009 C -0.577,3.156 -1.353,3.299 -1.993,3.131 -2.29,3.053 -2.563,2.898 -2.759,2.66 -2.956,2.42 -3.065,2.119 -3.092,1.811 c -0.044,-0.505 0.12,-1.04 0.479,-1.404 0.154,-0.141 0.338,-0.241 0.532,-0.315 0.212,-0.08 0.438,-0.116 0.651,-0.193 0.188,-0.068 0.372,-0.175 0.462,-0.362 0.087,-0.18 0.076,-0.394 -0.004,-0.574 -0.167,-0.305 -0.541,-0.321 -0.84,-0.234 -0.443,0.129 -0.835,0.427 -1.18,0.724 l -0.051,0.044 0,-1.254 0.013,-0.009 c 0.561,-0.393 1.279,-0.673 1.972,-0.539 0.316,0.061 0.61,0.207 0.826,0.449 0.217,0.242 0.345,0.556 0.387,0.876 0.04,0.311 -0.001,0.635 -0.128,0.922"
               id="path1238"
               style="fill:#000000;fill-opacity:1;fill-rule:nonzero;stroke:none" />
          </g>
          <g
             transform="translate(327.3365,736.8904)"
             id="g1240">
            <path
               d="m 0,0 c -0.007,0 -0.014,0.001 -0.021,0.001 l 0,-0.001 -0.304,0 0,0.114 0,1.27 0,0.113 0.304,0 0,-0.001 c 0.007,0 0.014,0.001 0.021,0.001 0.339,0 0.614,-0.335 0.614,-0.748 C 0.614,0.335 0.339,0 0,0 m -0.022,2.402 -0.299,0 -0.345,0 -0.679,0 0,-5.304 1.024,0 0,1.997 0.279,0 0,0.001 c 0.007,0 0.013,-0.001 0.02,-0.001 0.913,0 1.654,0.74 1.654,1.654 0,0.913 -0.741,1.653 -1.654,1.653"
               id="path1242"
               style="fill:#000000;fill-opacity:1;fill-rule:nonzero;stroke:none" />
          </g>
          <g
             transform="translate(333.0016,730.0319)"
             id="g1244">
            <path
               d="m 0,0 -0.361,0 0,-0.989 -0.296,0 0,0.989 -0.361,0 0,0.318 L 0,0.318 0,0 Z"
               id="path1246"
               style="fill:#000000;fill-opacity:1;fill-rule:nonzero;stroke:none" />
          </g>
          <g
             transform="translate(334.32,729.0427)"
             id="g1248">
            <path
               d="m 0,0 -0.297,0 0,0.757 -0.268,-0.438 -0.023,0 -0.269,0.438 0,-0.757 -0.288,0 0,1.307 0.269,0 0.303,-0.49 0.304,0.49 L 0,1.307 0,0 Z"
               id="path1250"
               style="fill:#000000;fill-opacity:1;fill-rule:nonzero;stroke:none" />
          </g>
          <g
             transform="translate(312.175,750.3605)"
             id="g1252">
            <path
               d="m 0,0 c -0.14,-0.637 -0.299,-1.279 -0.475,-1.927 -0.05,-0.2 -0.102,-0.401 -0.155,-0.602 -0.186,0.201 -0.374,0.402 -0.564,0.602 -0.632,0.648 -1.283,1.29 -1.951,1.927 l -1.074,0 c 0.704,-1.698 1.28,-3.434 1.728,-5.194 l 1.185,0 c -0.26,1.02 -0.563,2.031 -0.908,3.032 0.602,-0.627 1.187,-1.259 1.755,-1.894 l 0.607,0 c 0.204,0.635 0.391,1.267 0.562,1.894 0.345,-1.001 0.648,-2.012 0.908,-3.032 l 1.184,0 C 2.353,-3.434 1.777,-1.698 1.074,0 L 0,0 Z"
               id="path1254"
               style="fill:#000000;fill-opacity:1;fill-rule:nonzero;stroke:none" />
          </g>
          <g
             transform="translate(316.0865,736.8565)"
             id="g1256">
            <path
               d="m 0,0 -2.039,0 c 0.058,-1.364 0.043,-2.73 -0.044,-4.092 l -1.164,0 C -3.159,-2.73 -3.144,-1.364 -3.203,0 L -5.21,0 c -0.019,0.438 -0.045,0.876 -0.079,1.313 l 5.21,0 C -0.045,0.876 -0.019,0.438 0,0"
               id="path1258"
               style="fill:#000000;fill-opacity:1;fill-rule:nonzero;stroke:none" />
          </g>
          <g
             transform="translate(312.0469,723.1527)"
             id="g1260">
            <path
               d="M 0,0 C -0.009,0 -0.018,0.001 -0.026,0.001 -0.026,0.001 -0.027,0 -0.027,0 l -0.001,0 c 0,0 0,-0.001 -0.001,-0.002 l -1.354,0 c 0.16,0.491 0.309,0.985 0.449,1.482 l 1.354,0 c 0,-10e-4 0,-0.002 -0.001,-0.003 l 0.001,0 c 0,0 0,-0.001 0,-0.001 0.009,0 0.018,0.001 0.027,0.001 0.43,0 0.686,-0.332 0.562,-0.74 C 0.886,0.329 0.429,0 0,0 m 1.332,-1.778 c 0.005,0.403 -0.02,0.671 -0.056,0.805 -0.046,0.172 -0.152,0.307 -0.257,0.402 0.62,0.294 1.115,0.768 1.279,1.308 C 2.55,1.566 1.932,2.272 0.93,2.376 l -1.625,0 -0.916,0 -0.389,0 C -2.449,0.616 -3.025,-1.12 -3.728,-2.818 l 1.305,0 c 0.266,0.639 0.512,1.283 0.741,1.932 l 1.012,0 0.142,0 c 0.142,0 0.248,-0.021 0.323,-0.065 0.075,-0.043 0.132,-0.143 0.171,-0.298 0.038,-0.155 0.056,-0.4 0.046,-0.733 -0.009,-0.28 -0.021,-0.559 -0.037,-0.836 l 1.333,0 c 0.014,0.345 0.021,0.692 0.024,1.04"
               id="path1262"
               style="fill:#000000;fill-opacity:1;fill-rule:nonzero;stroke:none" />
          </g>
          <g
             transform="translate(314.5997,740.7719)"
             id="g1264">
            <path
               d="m 0,0 c 0.038,-0.273 -0.154,-0.496 -0.424,-0.496 l -1.885,0 c -0.269,0 -0.518,0.223 -0.556,0.496 -0.102,0.727 -0.224,1.451 -0.368,2.172 -0.054,0.271 0.119,0.492 0.389,0.492 l 1.886,0 c 0.269,0 0.537,-0.221 0.59,-0.492 C -0.224,1.451 -0.101,0.727 0,0 m 0.049,3.386 c -0.391,0.236 -0.823,0.355 -1.291,0.36 0,0 0,0 0,0 l -1.785,0 c -0.479,0 -0.86,-0.12 -1.147,-0.36 -0.287,-0.24 -0.392,-0.533 -0.32,-0.877 0.196,-0.943 0.357,-1.892 0.482,-2.844 0.045,-0.345 0.248,-0.641 0.613,-0.886 0.365,-0.246 0.789,-0.369 1.276,-0.369 l 1.788,0 0,0.001 c 0.473,0.004 0.865,0.127 1.171,0.368 0.313,0.245 0.448,0.541 0.403,0.886 C 1.114,0.617 0.954,1.566 0.757,2.509 0.685,2.853 0.448,3.146 0.049,3.386"
               id="path1266"
               style="fill:#000000;fill-opacity:1;fill-rule:nonzero;stroke:none" />
          </g>
          <g
             transform="translate(314.3428,728.0858)"
             id="g1268">
            <path
               d="m 0,0 c -0.05,-0.271 -0.314,-0.493 -0.584,-0.493 l -1.885,0 c -0.27,0 -0.446,0.222 -0.396,0.493 0.132,0.723 0.244,1.449 0.334,2.176 0.034,0.273 0.279,0.497 0.548,0.497 l 1.886,0 C 0.172,2.673 0.368,2.449 0.334,2.176 0.244,1.449 0.132,0.723 0,0 M 1.146,3.406 C 0.832,3.646 0.439,3.768 -0.028,3.772 l 0,0.001 -1.785,0 c -0.479,0 -0.9,-0.123 -1.264,-0.367 -0.366,-0.245 -0.566,-0.541 -0.606,-0.89 -0.11,-0.953 -0.256,-1.904 -0.437,-2.849 -0.066,-0.343 0.042,-0.635 0.328,-0.877 0.286,-0.243 0.671,-0.364 1.158,-0.364 l 1.788,0 c 0,0.001 0,0.001 0,0.001 0.475,0.005 0.906,0.125 1.29,0.363 0.391,0.242 0.621,0.534 0.687,0.877 0.182,0.945 0.327,1.896 0.437,2.849 0.04,0.349 -0.102,0.645 -0.422,0.89"
               id="path1270"
               style="fill:#000000;fill-opacity:1;fill-rule:nonzero;stroke:none" />
          </g>
        </g>
      </g>
    </g>
  </g>
</svg>
