<?xml version="1.0" encoding="UTF-8" standalone="no"?>
<!-- Created with Inkscape (http://www.inkscape.org/) -->

<svg
   xmlns:dc="http://purl.org/dc/elements/1.1/"
   xmlns:cc="http://creativecommons.org/ns#"
   xmlns:rdf="http://www.w3.org/1999/02/22-rdf-syntax-ns#"
   xmlns:svg="http://www.w3.org/2000/svg"
   xmlns="http://www.w3.org/2000/svg"
   xmlns:sodipodi="http://sodipodi.sourceforge.net/DTD/sodipodi-0.dtd"
   xmlns:inkscape="http://www.inkscape.org/namespaces/inkscape"
   width="267"
   height="373"
   id="svg3295"
   version="1.1"
   inkscape:version="0.48.4 r9939"
   sodipodi:docname="Ifmsa-int-logo.svg">
  <defs
     id="defs3297">
    <clipPath
       id="clipPath5208"
       clipPathUnits="userSpaceOnUse">
      <path
         id="path5210"
         d="m 259.02,672 93.96,0 0,90 -93.96,0 0,-90 z"
         inkscape:connector-curvature="0" />
    </clipPath>
    <clipPath
       id="clipPath5168"
       clipPathUnits="userSpaceOnUse">
      <path
         id="path5170"
         d="m 303.707,751.075 c -0.385,-0.477 -0.979,-0.703 -1.773,-0.457 l 0,0 c -0.83,0.256 -1.84,0.797 -2.425,1.19 l 0,0 c 0.492,-2.044 1.17,-4.564 1.716,-6.735 l 0,0 c 0.134,-0.535 0.356,-1.196 -0.179,-1.328 l 0,0 c -0.64,-0.161 -1.18,0.409 -1.479,0.687 l 0,0 c -1.062,0.992 -2.134,2.125 -3.193,2.887 l 0,0 c -0.066,-0.399 -0.298,-0.868 -0.532,-1.239 l 0,0 c -0.19,-0.299 -0.545,-0.668 -1.006,-0.731 l 0,0 c -0.611,-0.086 -1.63,0.116 -2.484,0.227 l 0,0 c -0.847,0.113 -1.661,0.272 -2.307,0.322 l 0,0 c 0.368,-0.86 0.833,-2.091 1.243,-3.115 l 0,0 c 0.156,-0.395 0.391,-0.77 0.355,-1.054 l 0,0 c -0.116,-0.876 -1.544,-1.096 -2.425,-1.239 l 0,0 c 0.121,-0.073 0.244,-0.146 0.366,-0.218 l 0,0 c 4.347,1.13 9.975,2.091 16.548,2.092 l 0,0 c 6.575,-10e-4 12.203,-0.962 16.549,-2.092 l 0,0 c 0.123,0.072 0.245,0.145 0.368,0.218 l 0,0 c -0.883,0.143 -2.312,0.363 -2.427,1.239 l 0,0 c -0.037,0.284 0.199,0.659 0.355,1.054 l 0,0 c 0.409,1.024 0.875,2.255 1.243,3.115 l 0,0 c -0.645,-0.05 -1.46,-0.209 -2.307,-0.322 l 0,0 c -0.853,-0.111 -1.874,-0.313 -2.485,-0.227 l 0,0 c -0.461,0.063 -0.815,0.432 -1.003,0.731 l 0,0 c -0.236,0.371 -0.467,0.84 -0.535,1.239 l 0,0 c -1.058,-0.762 -2.13,-1.895 -3.192,-2.887 l 0,0 c -0.299,-0.278 -0.839,-0.848 -1.48,-0.687 l 0,0 c -0.534,0.132 -0.312,0.793 -0.177,1.328 l 0,0 c 0.545,2.171 1.222,4.691 1.714,6.735 l 0,0 c -0.584,-0.393 -1.594,-0.934 -2.424,-1.19 l 0,0 c -0.795,-0.246 -1.389,-0.02 -1.773,0.457 l 0,0 c -0.22,0.274 -1.912,3.664 -2.426,4.491 l 0,0 c -0.515,-0.827 -2.204,-4.217 -2.425,-4.491"
         inkscape:connector-curvature="0" />
    </clipPath>
    <clipPath
       id="clipPath5156"
       clipPathUnits="userSpaceOnUse">
      <path
         id="path5158"
         d="m 283.242,759.362 0,-21.128 c 4.31,1.679 12.394,4.129 22.89,4.13 l 0,0 c 10.406,-10e-4 18.44,-2.407 22.776,-4.086 l 0,0 0,21.084 -45.666,0 z"
         inkscape:connector-curvature="0" />
    </clipPath>
    <clipPath
       id="clipPath5144"
       clipPathUnits="userSpaceOnUse">
      <path
         id="path5146"
         d="m 259.02,672 93.96,0 0,90 -93.96,0 0,-90 z"
         inkscape:connector-curvature="0" />
    </clipPath>
    <clipPath
       id="clipPath4074"
       clipPathUnits="userSpaceOnUse">
      <path
         id="path4076"
         d="M 0,0 792,0 792,612 0,612 0,0 z"
         inkscape:connector-curvature="0" />
    </clipPath>
    <clipPath
       id="clipPath4070"
       clipPathUnits="userSpaceOnUse">
      <path
         id="path4072"
         d="M 0,0 792,0 792,612 0,612 0,0 z"
         inkscape:connector-curvature="0" />
    </clipPath>
    <clipPath
       id="clipPath4066"
       clipPathUnits="userSpaceOnUse">
      <path
         id="path4068"
         d="m 332.598,243.597 c -2.835,-5.629 -1.151,-9.057 -1.151,-9.057 l 0,0 c 6.56,-9.318 17.462,-1.405 17.462,-1.405 l 0,0 83.893,0 c 0,0 10.903,-7.913 17.462,1.405 l 0,0 c 0,0 1.684,3.428 -1.15,9.057 l 0,0 -58.275,101.993 -58.241,-101.993 z"
         inkscape:connector-curvature="0" />
    </clipPath>
    <clipPath
       id="clipPath4062"
       clipPathUnits="userSpaceOnUse">
      <path
         id="path4064"
         d="M 0,0 792,0 792,612 0,612 0,0 z"
         inkscape:connector-curvature="0" />
    </clipPath>
    <clipPath
       id="clipPath4058"
       clipPathUnits="userSpaceOnUse">
      <path
         id="path4060"
         d="M 0,0 792,0 792,612 0,612 0,0 z"
         inkscape:connector-curvature="0" />
    </clipPath>
    <clipPath
       id="clipPath4054"
       clipPathUnits="userSpaceOnUse">
      <path
         id="path4056"
         d="m 453.785,320.137 -124.878,0 c -0.76,0 -1.615,-0.151 -2.566,-0.454 l 0,0 c -0.949,-0.306 -1.73,-0.683 -2.335,-1.142 l 0,0 -6.155,-5.362 c -0.607,-0.381 -1.122,-1.008 -1.536,-1.883 l 0,0 c -0.42,-0.873 -0.629,-1.691 -0.629,-2.448 l 0,0 0,-7.189 c 0,-0.765 0.209,-1.562 0.629,-2.396 l 0,0 c 0.414,-0.837 0.929,-1.484 1.536,-1.94 l 0,0 6.155,-5.359 c 0.605,-0.382 1.386,-0.743 2.335,-1.083 l 0,0 c 0.951,-0.347 1.806,-0.518 2.566,-0.518 l 0,0 7.975,0 9.996,0 113.197,12.587 c 0,0 12.042,4.874 5.136,14.271 l 0,0 c 0,0 -2.74,2.916 -11.39,2.916 l 0,0 c -0.012,0 -0.023,0 -0.036,0"
         inkscape:connector-curvature="0" />
    </clipPath>
    <clipPath
       id="clipPath4050"
       clipPathUnits="userSpaceOnUse">
      <path
         id="path4052"
         d="M 0,0 792,0 792,612 0,612 0,0 z"
         inkscape:connector-curvature="0" />
    </clipPath>
    <clipPath
       id="clipPath4046"
       clipPathUnits="userSpaceOnUse">
      <path
         id="path4048"
         d="m 444.482,289.331 -11.643,0 -111.55,-12.586 c 0,0 -12.046,-4.875 -5.136,-14.272 l 0,0 c 0,0 2.747,-2.929 11.424,-2.919 l 0,0 124.879,0 c 0.758,0 1.611,0.152 2.561,0.458 l 0,0 c 0.953,0.306 1.733,0.683 2.34,1.141 l 0,0 6.151,5.361 c 0.611,0.384 1.122,1.007 1.539,1.881 l 0,0 c 0.421,0.878 0.629,1.694 0.629,2.455 l 0,0 0,7.185 c 0,0.765 -0.208,1.561 -0.629,2.399 l 0,0 c -0.417,0.837 -0.928,1.481 -1.539,1.938 l 0,0 -6.151,5.362 c -0.607,0.381 -1.387,0.739 -2.34,1.082 l 0,0 c -0.95,0.342 -1.803,0.515 -2.561,0.515 l 0,0 -7.974,0 z"
         inkscape:connector-curvature="0" />
    </clipPath>
    <clipPath
       id="clipPath4042"
       clipPathUnits="userSpaceOnUse">
      <path
         id="path4044"
         d="M 0,0 792,0 792,612 0,612 0,0 z"
         inkscape:connector-curvature="0" />
    </clipPath>
    <clipPath
       id="clipPath4038"
       clipPathUnits="userSpaceOnUse">
      <path
         id="path4040"
         d="M 0,0 792,0 792,612 0,612 0,0 z"
         inkscape:connector-curvature="0" />
    </clipPath>
    <clipPath
       id="clipPath4034"
       clipPathUnits="userSpaceOnUse">
      <path
         id="path4036"
         d="m 253.717,286.27 c 0,-75.678 61.345,-137.026 137.024,-137.026 l 0,0 c 75.675,0 137.023,61.348 137.023,137.026 l 0,0 c 0,75.675 -61.348,137.021 -137.023,137.021 l 0,0 c -75.679,0 -137.024,-61.346 -137.024,-137.021"
         inkscape:connector-curvature="0" />
    </clipPath>
    <clipPath
       clipPathUnits="userSpaceOnUse"
       id="clipPath2999">
      <path
         inkscape:connector-curvature="0"
         d="m 461.9,268.95 150.1,0 0,523.05 -150.1,0 0,-523.05 z"
         id="path3001" />
    </clipPath>
    <clipPath
       clipPathUnits="userSpaceOnUse"
       id="clipPath3013">
      <path
         inkscape:connector-curvature="0"
         d="m 539.04,45.84 39.96,0 0,47.924 -39.96,0 0,-47.924 z"
         id="path3015" />
    </clipPath>
    <clipPath
       clipPathUnits="userSpaceOnUse"
       id="clipPath3027">
      <path
         inkscape:connector-curvature="0"
         d="m 539.041,45.84 39.959,0 0,47.924 -39.959,0 0,-47.924 z"
         id="path3029" />
    </clipPath>
  </defs>
  <sodipodi:namedview
     id="base"
     pagecolor="#ffffff"
     bordercolor="#666666"
     borderopacity="1.0"
     inkscape:pageopacity="0.0"
     inkscape:pageshadow="2"
     inkscape:zoom="1.979899"
     inkscape:cx="214.61561"
     inkscape:cy="186.03378"
     inkscape:document-units="px"
     inkscape:current-layer="g3613"
     showgrid="false"
     inkscape:window-width="1301"
     inkscape:window-height="1069"
     inkscape:window-x="107"
     inkscape:window-y="92"
     inkscape:window-maximized="0" />
  <metadata
     id="metadata3300">
    <rdf:RDF>
      <cc:Work
         rdf:about="">
        <dc:format>image/svg+xml</dc:format>
        <dc:type
           rdf:resource="http://purl.org/dc/dcmitype/StillImage" />
        <dc:title></dc:title>
      </cc:Work>
    </rdf:RDF>
  </metadata>
  <g
     inkscape:label="Layer 1"
     inkscape:groupmode="layer"
     id="layer1"
     transform="translate(0,-679.36218)">
    <g
       id="g3613"
       transform="matrix(0.97277831,0,0,0.97277831,5.682844,741.90593)">
      <g
         id="g4044"
         transform="matrix(1.1556249,0,0,1.1556249,-12.307548,-9.2770174)">
        <g
           inkscape:label="Layer 1"
           id="layer1-7"
           transform="matrix(0.23711385,0,0,0.23711385,-263.77918,531.84219)">
          <g
             transform="matrix(1.25,0,0,-1.25,-29.901123,1051.9497)"
             inkscape:label="NASL-Fall-Schedule-PR-EN_yqcu8sn24xzo1o55by7w6a5qw"
             id="g2993">
            <g
               id="g7178"
               transform="matrix(10.880585,0,0,10.880585,1722.4156,2723.0066)">
              <path
                 d="M 0,0 -0.183,1.361 -1.501,1.744 C -12.636,4.98 -24.161,6.619 -35.76,6.619 l -0.145,0 c -11.591,0 -23.109,-1.641 -34.236,-4.875 L -71.458,1.36 -71.642,0 c -0.681,-5.106 -2.525,-23.39 2.433,-44.295 4.354,-18.363 12.549,-32.879 24.407,-43.299 0.271,-4.728 4.191,-8.497 8.984,-8.497 4.799,0 8.722,3.775 8.985,8.508 11.854,10.418 20.045,24.932 24.4,43.288 C 2.528,-23.382 0.683,-5.104 0,0"
                 style="fill:#ffffff;fill-opacity:1;fill-rule:nonzero;stroke:none"
                 id="path7180"
                 inkscape:connector-curvature="0" />
            </g>
            <g
               id="g7182"
               transform="matrix(10.880585,0,0,10.880585,1234.5585,1918.5713)"
               style="stroke:#891c30;stroke-width:0.2;stroke-opacity:1">
              <path
                 d="m 0,0 c -0.596,-0.048 -1.195,-0.099 -1.79,-0.154 0.892,-1.264 1.822,-2.486 2.788,-3.673 l 1.321,1.094 0,0.058 C 2.193,-2.59 2.053,-2.5 1.88,-2.391 0.821,-1.734 0.279,-0.797 0,0 m 2.319,-5.408 0,0.003 c -0.016,0.018 -0.033,0.037 -0.052,0.058 0.019,-0.021 0.036,-0.041 0.052,-0.061 m 12.687,-0.798 c 0.241,0.27 0.481,0.537 0.719,0.811 l 0,0.007 c -0.239,-0.274 -0.478,-0.547 -0.722,-0.818 l 0.003,0 z m -19.373,30.728 0,-5.733 c 0.886,0.102 1.775,0.186 2.664,0.267 -0.949,1.924 -1.855,3.788 -2.664,5.466 M 14.861,-0.642 c 0.05,-0.613 0.063,-1.083 0.046,-1.448 l 0.372,-0.256 0.446,-0.321 0,2.828 C 15.58,0.17 15.433,0.173 15.289,0.179 15.112,-0.18 14.965,-0.456 14.861,-0.642 M 1.817,7.398 C 1.112,9.203 0.625,11.02 0.354,12.827 -1.221,12.71 -2.796,12.574 -4.367,12.395 l 0,-6.404 c 2.034,0.232 4.071,0.405 6.11,0.531 0.024,0.354 0.05,0.656 0.074,0.876 m -6.184,-3.629 0,2.222 C -4.773,5.943 -5.18,5.883 -5.583,5.833 c 0.396,-0.699 0.8,-1.384 1.216,-2.064 m 0,15.02 c -2.222,-0.254 -4.442,-0.571 -6.651,-0.952 l 0,-0.191 c 0.539,-1.462 1.104,-2.896 1.708,-4.293 0.221,-0.517 0.45,-1.025 0.682,-1.532 1.417,0.216 2.837,0.414 4.261,0.576 l 0,6.392 z m 40.026,36.098 c -2.186,0.505 -4.385,0.949 -6.597,1.33 l 0,-6.377 c 2.103,-0.363 4.202,-0.787 6.285,-1.265 0.146,2.042 0.253,4.152 0.312,6.312 M 22.848,37.447 22.764,36.829 c -0.025,-0.188 -0.129,-0.357 -0.285,-0.468 l -0.069,-0.05 0,-4.724 c 2.225,-0.254 4.442,-0.572 6.652,-0.953 l 0,6.403 c -1.958,0.338 -3.926,0.618 -5.895,0.855 L 22.848,37.447 z M -4.669,25.149 c -1.048,2.178 -1.911,3.993 -2.45,5.137 l -0.789,0.335 -2.195,-0.64 c -0.103,-0.094 -0.218,-0.17 -0.347,-0.231 -0.17,-0.084 -0.367,-0.127 -0.568,-0.137 l 0,-5.376 c -0.678,-0.116 -1.357,-0.252 -2.036,-0.381 0.6,-2.065 1.258,-4.076 1.971,-6.031 0.024,0.004 0.045,0.008 0.065,0.012 l 0,6.4 c 2.11,0.362 4.227,0.663 6.349,0.912 m 31.425,25.055 0.041,-1.457 0,-0.043 c -0.066,-1.847 -0.347,-3.488 -0.663,-4.808 0.978,-0.142 1.952,-0.294 2.928,-0.461 l 0,6.405 c -0.769,0.132 -1.537,0.247 -2.306,0.364 m -11.031,-49.09 0,-0.953 c 1.369,-0.079 2.734,-0.187 4.1,-0.314 0.899,1.274 1.76,2.588 2.585,3.937 l 0,2.207 C 20.813,6.173 19.214,6.311 17.614,6.428 16.953,4.104 16.268,2.334 15.725,1.114 m 6.685,24.076 0,6.397 c -1.466,0.167 -2.94,0.297 -4.41,0.41 l -0.21,-3.156 c -10e-4,-0.034 -0.008,-0.069 -0.014,-0.103 -0.01,-0.037 -0.334,-1.571 -0.521,-3.087 1.722,-0.12 3.439,-0.266 5.155,-0.463 l 0,-6.399 c 2.225,-0.254 4.442,-0.571 6.652,-0.952 l 0,6.4 c 0.677,-0.118 1.353,-0.252 2.026,-0.38 0.578,1.983 1.101,4.015 1.571,6.095 -1.196,0.245 -2.395,0.475 -3.597,0.682 l 0,-6.397 c -2.21,0.382 -4.427,0.698 -6.652,0.953 m 0,-19.199 c 0.403,-0.048 0.804,-0.105 1.208,-0.156 1.088,1.923 2.105,3.919 3.046,5.985 -1.415,0.213 -2.833,0.411 -4.254,0.575 l 0,-6.404 z m 6.708,11.835 c -0.019,0.004 -0.039,0.008 -0.056,0.011 l 0,-0.163 c 0.019,0.05 0.037,0.102 0.056,0.152 m -10.159,-3.038 0.01,-0.036 c 0.011,-0.046 0.016,-0.091 0.021,-0.139 l 0,-0.035 c 0.001,-0.047 0.022,-0.69 -0.091,-1.834 1.172,-0.099 2.342,-0.213 3.511,-0.347 l 0,6.392 c -1.488,0.171 -2.978,0.301 -4.467,0.415 0.397,-1.852 0.827,-3.659 1.016,-4.416 m 14.912,21.303 c 0.343,2.03 0.637,4.099 0.886,6.206 -1.892,0.423 -3.788,0.808 -5.695,1.138 l 0,-6.398 c 1.608,-0.276 3.21,-0.6 4.809,-0.946 m -51.492,18.735 0,0.073 -0.004,0 c 0.001,-0.024 0.002,-0.047 0.004,-0.073 m 13.254,2.362 0,-0.001 c 0.067,0.008 0.134,0.014 0.202,0.021 -0.068,-0.007 -0.135,-0.012 -0.202,-0.02 m -13.254,-2.267 0,-0.022 c 2.19,0.509 4.394,0.954 6.603,1.336 l 0,0.009 c -2.211,-0.378 -4.415,-0.818 -6.603,-1.323 M 13.09,46.132 c 0.018,-0.193 0.008,-0.482 -0.004,-0.737 0.067,-0.135 0.11,-0.252 0.137,-0.329 0.834,-0.03 1.668,-0.06 2.502,-0.107 l 0,6.406 c -0.867,0.05 -1.734,0.08 -2.6,0.11 0,-0.001 0.002,-0.003 0.002,-0.003 l 0.089,-0.356 c 0.476,-1.897 0.031,-3.731 -0.217,-4.526 0.048,-0.153 0.079,-0.308 0.091,-0.458 M -12.419,30.443 c -0.354,0.723 -0.051,1.609 0.683,1.968 0.207,0.1 0.421,0.148 0.637,0.148 l 0.009,0 0.072,0.049 0,4.429 c -1.611,-0.278 -3.216,-0.601 -4.816,-0.946 0.352,-2.091 0.756,-4.137 1.209,-6.141 0.746,0.152 1.492,0.297 2.239,0.436 -0.01,0.02 -0.023,0.036 -0.033,0.057 m 29.016,9.143 1.37,1.508 c 0.131,0.144 0.319,0.226 0.512,0.226 0.004,0 0.347,-0.006 0.347,-0.006 l 0.895,0.674 c 0.184,0.594 0.553,1.451 1.1,2.557 -1.697,0.17 -3.395,0.317 -5.096,0.414 l 0,-5.878 c 0.227,0.127 0.532,0.304 0.872,0.505 m -4.463,-1.65 c 0.256,-0.064 0.536,-0.132 0.74,-0.18 0.191,0.067 0.669,0.265 1.857,0.84 0.006,0.002 0.01,0.005 0.016,0.008 -0.92,0.044 -1.836,0.084 -2.757,0.106 l 0.144,-0.774 z m 9.501,13.406 c -0.025,0.103 -0.043,0.203 -0.055,0.29 l -0.259,0.692 c -0.05,0.132 -0.057,0.276 -0.024,0.412 l 0.027,0.104 c 0.089,0.35 0.328,0.644 0.702,0.867 l 0.041,1.288 -0.126,0.431 c -0.017,0.049 -0.024,0.102 -0.028,0.157 l -0.002,0.042 c -0.794,0.435 -1.282,1.05 -1.399,1.735 -1.594,0.157 -3.188,0.292 -4.787,0.384 l 0,-6.379 c 1.933,-0.112 3.863,-0.277 5.789,-0.483 -0.014,0.163 0.026,0.326 0.121,0.46 M 2.744,29.891 C 2.671,29.811 2.618,29.732 2.595,29.689 L 2.563,29.625 C 2.516,29.529 2.445,29.447 2.36,29.383 l -0.041,-0.032 0,-3.588 c -0.774,-0.044 -1.548,-0.106 -2.32,-0.166 0.396,-0.815 0.813,-1.675 1.245,-2.571 0.341,0.989 0.717,1.841 1.075,2.548 l 0,0.186 c 0.032,0.003 0.066,0.003 0.099,0.004 0.504,0.973 0.959,1.641 1.193,1.962 l 0.135,0.946 c -0.139,0.35 -0.557,0.821 -1.002,1.219 m 7.542,21.427 c 0.229,0.089 0.392,0.135 0.439,0.149 l 0.218,0.06 c -0.231,0.005 -0.463,0.009 -0.694,0.011 0.023,-0.072 0.038,-0.146 0.037,-0.22 m -27.493,-4.199 c 0.133,-1.629 0.294,-3.237 0.482,-4.825 1.424,0.318 2.853,0.607 4.286,0.873 -0.018,0.124 -0.012,0.249 0.039,0.363 l 0.349,0.822 c 0.112,0.258 0.364,0.418 0.637,0.418 0.056,0 0.117,-0.007 0.177,-0.023 l 0.219,-0.06 0,5.153 c -2.107,-0.364 -4.206,-0.789 -6.296,-1.269 0.034,-0.487 0.067,-0.973 0.107,-1.452 m 6.189,9.116 0,-6.395 c 2.209,0.38 4.429,0.699 6.651,0.953 l 0,6.394 c -2.222,-0.255 -4.442,-0.573 -6.651,-0.952 m 0.022,-17.249 -0.022,0.018 0,-1.967 c 0.271,0.046 0.54,0.083 0.808,0.128 l -0.786,1.821 z m 6.629,5.4 c 2.224,0.255 4.455,0.445 6.686,0.573 l 0,1.276 -1.357,-0.36 C 0.904,45.858 0.844,45.851 0.785,45.851 c -0.199,0 -0.393,0.088 -0.526,0.242 -0.172,0.203 -0.213,0.486 -0.108,0.727 l 0.294,0.658 c 0.573,1.307 1.211,2.332 1.874,3.135 l 0,0.752 C 0.088,51.237 -2.143,51.046 -4.367,50.793 l 0,-6.407 z m -5.075,-0.703 c 0.13,-0.097 0.285,-0.2 0.473,-0.296 l 0.115,-0.057 c 0.149,-0.076 0.265,-0.203 0.326,-0.357 l 0.05,-0.119 c 0.063,-0.16 0.237,-0.63 0.264,-1.182 l 0.168,-0.089 c 0.219,-0.117 0.358,-0.345 0.364,-0.593 l 0.009,-0.385 0.753,-1.348 c 0.058,0.019 0.12,0.031 0.183,0.034 0,0 0.191,0.011 0.192,0.011 0.67,0 1.248,-0.355 1.544,-0.949 l 0.053,-0.11 c 0.05,-0.1 0.065,-0.209 0.062,-0.32 0.175,0.021 0.346,0.047 0.519,0.066 l 0,6.397 C -6.063,44.192 -7.752,43.95 -9.442,43.683 m 11.761,14.07 0,-6.388 c 0.241,0.012 0.481,0.018 0.721,0.03 1.742,1.682 3.538,2.013 4.68,2.013 0.662,0 1.086,-0.115 1.131,-0.128 l 0.067,-0.019 c 0.035,-0.01 0.07,-0.025 0.103,-0.04 l 0,4.718 c -0.027,0 -0.052,10e-4 -0.08,10e-4 -2.208,0 -4.418,-0.063 -6.622,-0.187 M -4.367,36.728 c 0.026,-0.043 0.057,-0.085 0.079,-0.132 l 0.05,-0.113 c 0.039,-0.099 0.061,-0.205 0.055,-0.311 l 1.619,0.524 c 0.139,0.177 0.315,0.32 0.516,0.417 0.192,0.094 0.416,0.145 0.641,0.145 0.569,0 1.078,-0.319 1.33,-0.832 0.071,-0.15 0.119,-0.31 0.137,-0.469 0.607,0.595 1.518,0.958 2.259,1.17 l 0,1.435 C 0.088,38.434 -2.143,38.244 -4.367,37.989 l 0,-1.261 z m 8.478,1.909 0,0.135 C 4.078,38.865 4.007,39.027 3.967,39.124 3.631,39.938 3.065,41.3 3.075,43.042 3.079,43.785 3.251,44.444 3.498,45.008 3.105,44.99 2.712,44.981 2.319,44.959 l 0,-6.397 c 0.597,0.033 1.195,0.051 1.792,0.075"
                 style="fill:#891c30;fill-opacity:1;fill-rule:nonzero;stroke:#891c30;stroke-width:0.2;stroke-opacity:1"
                 id="path7184"
                 inkscape:connector-curvature="0" />
            </g>
            <g
               id="g7186"
               transform="matrix(10.880585,0,0,10.880585,1629.453,2579.2262)">
              <path
                 d="m 0,0 c -0.789,2.322 -1.57,4.631 -2.346,6.932 0.101,-2.152 0.2,-4.306 0.297,-6.459 -0.534,0.12 -1.066,0.235 -1.601,0.346 -0.157,3.575 -0.313,7.148 -0.464,10.722 0.503,-0.102 1.002,-0.207 1.503,-0.315 0.769,-2.262 1.543,-4.532 2.324,-6.813 -0.106,2.12 -0.21,4.238 -0.316,6.358 0.525,-0.124 1.044,-0.249 1.566,-0.379 C 1.148,6.803 1.338,3.213 1.524,-0.376 1.017,-0.248 0.508,-0.121 0,0 m -9.188,1.831 c -0.12,3.561 -0.238,7.122 -0.357,10.684 1.404,-0.218 2.802,-0.461 4.199,-0.73 0.024,-0.586 0.049,-1.171 0.073,-1.755 -0.805,0.156 -1.61,0.302 -2.418,0.441 0.031,-0.872 0.062,-1.745 0.096,-2.619 0.736,-0.127 1.471,-0.263 2.206,-0.402 0.024,-0.585 0.047,-1.17 0.073,-1.754 -0.739,0.14 -1.475,0.276 -2.215,0.403 0.035,-0.938 0.069,-1.88 0.103,-2.821 0.828,-0.144 1.653,-0.296 2.479,-0.457 0.023,-0.586 0.047,-1.169 0.072,-1.755 -1.434,0.282 -2.872,0.538 -4.311,0.765 m -2.072,0.31 c -0.89,0.123 -1.779,0.238 -2.672,0.342 -0.552,3.607 -1.097,7.209 -1.631,10.808 0.608,-0.064 1.219,-0.131 1.828,-0.203 0.38,-3.033 0.76,-6.068 1.151,-9.107 0.23,2.959 0.454,5.916 0.674,8.875 0.566,-0.076 1.134,-0.156 1.696,-0.24 C -10.553,9.125 -10.9,5.632 -11.26,2.141 m -9.174,0.921 c -0.045,3.545 -0.089,7.09 -0.134,10.635 1.412,-0.085 2.827,-0.195 4.236,-0.331 0.012,-0.581 0.025,-1.162 0.035,-1.743 -0.812,0.078 -1.628,0.148 -2.439,0.209 0.013,-0.868 0.027,-1.738 0.043,-2.605 0.742,-0.057 1.484,-0.12 2.226,-0.191 0.012,-0.58 0.026,-1.163 0.037,-1.743 -0.744,0.07 -1.495,0.135 -2.237,0.191 0.017,-0.936 0.032,-1.87 0.047,-2.807 0.833,-0.065 1.669,-0.136 2.501,-0.219 0.015,-0.581 0.025,-1.162 0.037,-1.743 -1.447,0.142 -2.899,0.259 -4.352,0.347 m -4.759,0.195 c -0.013,3.543 -0.026,7.086 -0.042,10.628 0.605,-0.011 1.205,-0.028 1.808,-0.05 0.021,-2.963 0.044,-5.927 0.066,-8.889 0.703,-0.026 1.406,-0.057 2.107,-0.096 0.008,-0.58 0.014,-1.162 0.02,-1.742 -1.317,0.072 -2.64,0.122 -3.959,0.149 m -5.606,-0.016 c 0.025,3.543 0.046,7.086 0.069,10.629 1.419,0.037 2.831,0.048 4.249,0.034 0,-0.579 0,-1.16 0.002,-1.739 -0.818,0.007 -1.63,0.006 -2.448,-0.003 -0.003,-0.867 -0.006,-1.735 -0.007,-2.602 0.744,0.007 1.487,0.008 2.232,0.003 0.002,-0.58 0.003,-1.161 0.003,-1.74 -0.748,0.006 -1.493,0.005 -2.241,-0.004 -10e-4,-0.934 -0.007,-1.869 -0.012,-2.804 0.84,0.01 1.676,0.011 2.512,0.001 0.002,-0.58 0,-1.16 0.003,-1.74 -1.455,0.016 -2.909,0.003 -4.362,-0.035 m -4.738,3.028 C -35.553,5.184 -35.57,4.1 -35.584,3.016 c -0.61,-0.041 -1.218,-0.087 -1.828,-0.138 0.019,1.085 0.042,2.17 0.059,3.256 -0.61,2.408 -1.21,4.814 -1.801,7.214 0.627,0.062 1.258,0.118 1.885,0.17 0.301,-1.624 0.605,-3.248 0.909,-4.873 0.396,1.677 0.788,3.351 1.175,5.025 0.576,0.037 1.148,0.069 1.724,0.098 -0.682,-2.494 -1.373,-4.993 -2.076,-7.499 m -4.224,-2.315 c -0.409,-0.474 -0.82,-0.95 -1.227,-1.427 -1.32,-0.151 -2.635,-0.322 -3.95,-0.517 0.115,3.56 0.23,7.119 0.348,10.679 1.285,0.186 2.581,0.352 3.871,0.496 0.379,-0.39 0.762,-0.781 1.143,-1.173 -0.062,-2.686 -0.124,-5.371 -0.185,-8.058 m -6.344,-2.122 c -0.513,-0.081 -1.026,-0.166 -1.54,-0.254 -0.609,2.026 -1.208,4.048 -1.799,6.068 -0.09,-2.147 -0.175,-4.295 -0.265,-6.441 -0.535,-0.102 -1.071,-0.208 -1.607,-0.319 0.158,3.576 0.314,7.151 0.471,10.724 0.502,0.1 1.004,0.198 1.508,0.292 0.586,-1.985 1.181,-3.973 1.784,-5.965 0.078,2.109 0.158,4.216 0.239,6.324 0.528,0.09 1.053,0.175 1.582,0.255 -0.122,-3.56 -0.247,-7.121 -0.373,-10.684 m -5.624,8.088 c -0.356,-0.075 -0.709,-0.149 -1.065,-0.227 -0.123,-2.563 -0.243,-5.125 -0.364,-7.687 0.36,0.079 0.72,0.157 1.081,0.233 -0.022,-0.508 -0.048,-1.017 -0.069,-1.526 -1.329,-0.28 -2.652,-0.586 -3.971,-0.912 0.027,0.511 0.053,1.02 0.079,1.528 0.358,0.09 0.718,0.177 1.077,0.261 0.128,2.568 0.258,5.134 0.387,7.701 -0.355,-0.084 -0.708,-0.166 -1.061,-0.254 0.027,0.509 0.055,1.019 0.08,1.529 1.295,0.315 2.594,0.608 3.896,0.879 -0.023,-0.508 -0.047,-1.018 -0.07,-1.525 m 58.184,3.015 c -11.019,3.201 -22.381,4.798 -33.744,4.791 -11.355,0.007 -22.709,-1.59 -33.718,-4.791 -2.159,-16.132 -2.451,-59.299 24.988,-84.675 0.277,1.141 0.77,2.197 1.433,3.123 -5.268,5.812 -9.614,12.65 -12.957,20.418 -4.294,9.978 -7.008,21.56 -8.061,34.428 -0.253,3.105 -0.407,6.342 -0.461,9.631 13.176,3.231 26.763,4.201 40.186,2.917 -0.047,0.111 -0.09,0.222 -0.123,0.335 l -0.059,0.197 c -0.074,0.241 -0.008,0.506 0.168,0.685 l 0.143,0.147 c 0.154,0.155 1.546,1.53 3.137,1.53 0.955,0 1.492,-0.546 1.845,-0.906 0.289,-0.292 0.379,-0.377 0.627,-0.377 0.073,0 0.157,0.008 0.249,0.024 l 0.111,0.019 c 0.043,0.008 0.082,0.012 0.123,0.012 0.107,0 0.215,-0.026 0.31,-0.075 l 0.103,-0.052 c 0.089,-0.044 0.815,-0.426 1.356,-1.27 l 0.225,0.108 c 0.102,0.052 0.207,0.075 0.311,0.075 0.249,0 0.489,-0.135 0.613,-0.367 l 0.767,-1.447 c 2.504,-0.452 5.001,-0.982 7.483,-1.594 -0.057,-3.172 -0.203,-6.309 -0.446,-9.336 -1.031,-12.91 -3.732,-24.536 -8.025,-34.559 -3.35,-7.817 -7.711,-14.695 -13.008,-20.536 0.668,-0.926 1.161,-1.98 1.441,-3.121 C 8.9,-46.354 8.613,-3.195 6.455,12.935 m -49.297,-1.639 c -0.074,-2.464 -0.146,-4.927 -0.219,-7.391 0.36,0.048 0.721,0.095 1.08,0.138 0.137,0.165 0.271,0.331 0.409,0.495 0.055,2.163 0.115,4.327 0.17,6.49 -0.128,0.133 -0.251,0.267 -0.378,0.401 -0.357,-0.043 -0.709,-0.088 -1.062,-0.133 M -31.937,-33.3 c -0.308,-0.398 -2.026,-2.739 -2.932,-6.574 -1.286,2.691 -2.687,5.575 -4.177,8.589 l 1.998,0.155 0.431,-0.25 c 0.034,-0.019 0.073,-0.031 0.113,-0.034 0,0 0.028,-0.002 0.082,-0.002 0.25,0 1.129,0.047 1.951,0.654 0.034,0.024 0.061,0.055 0.078,0.092 0.003,0.006 0.305,0.597 0.905,0.802 0.506,-0.38 1.549,-1.308 1.739,-2.117 l -0.188,-1.315 z m 10.479,-30.408 -0.757,0.52 c 0.067,0.298 0.085,0.873 -0.014,2.005 0.307,0.519 2.047,3.624 3.409,9.468 0.806,3.463 0.738,5.461 0.735,5.544 -10e-4,0.017 -0.003,0.034 -0.009,0.051 -0.015,0.077 -1.909,7.722 -1.851,9.584 0.055,1.872 0.651,4.67 0.662,4.735 l 0.258,3.809 2.986,3 1.651,1.182 c 0.058,0.041 0.096,0.104 0.105,0.173 l 0.091,0.662 2.235,3.129 c 0.01,0.013 0.018,0.028 0.025,0.044 0.061,0.135 1.494,3.366 1.657,7.809 l -0.077,2.647 c 0,0.027 -0.003,0.055 -0.014,0.081 l -0.318,0.863 -0.195,2.124 c -0.01,0.118 -0.101,0.213 -0.22,0.229 l -0.204,0.028 -0.006,0.219 0.254,0.601 0.088,0.387 c 0.755,0.17 1.289,0.549 1.471,1.029 0.111,-0.117 0.172,-0.192 0.172,-0.193 0.06,-0.072 0.154,-0.106 0.247,-0.089 0.092,0.016 0.166,0.082 0.196,0.17 0.295,0.875 1.5,0.918 1.738,0.918 l 0.056,0 c 0.097,-0.007 0.178,0.041 0.228,0.118 0.048,0.077 0.052,0.175 0.01,0.257 l -0.422,0.8 c -0.065,0.123 -0.217,0.173 -0.342,0.11 -0.225,-0.116 -0.592,-0.064 -0.75,-0.011 -0.43,0.911 -1.201,1.308 -1.237,1.325 -0.048,0.025 -0.104,0.032 -0.158,0.024 -0.137,-0.024 -0.266,-0.038 -0.385,-0.038 -0.582,0 -0.859,0.283 -1.182,0.61 -0.31,0.316 -0.661,0.673 -1.288,0.673 -1.29,0 -2.53,-1.244 -2.58,-1.297 -0.068,-0.066 -0.091,-0.163 -0.063,-0.254 0.17,-0.551 0.521,-1.008 0.854,-1.342 -0.366,-0.244 -0.584,-0.56 -0.622,-0.915 -0.074,-0.647 0.469,-1.291 1.395,-1.67 l 0.027,-0.465 c 0,-0.019 0.002,-0.039 0.01,-0.058 l 0.151,-0.512 -0.061,-1.921 c -0.041,0.004 -0.08,-0.002 -0.114,-0.017 -0.157,-0.062 -0.527,-0.235 -0.597,-0.506 -0.013,-0.051 -0.01,-0.104 0.009,-0.153 L -13.95,-8.9 c 0.011,-0.105 0.052,-0.381 0.167,-0.61 l -0.149,-0.197 c -0.044,-0.06 -0.059,-0.132 -0.044,-0.203 0.013,-0.065 0.124,-0.586 0.369,-0.938 l -0.043,-1.376 -0.326,-0.447 c -0.04,-0.058 -0.056,-0.129 -0.043,-0.2 0.014,-0.068 0.057,-0.13 0.117,-0.168 0.004,-10e-4 0.285,-0.188 0.26,-0.639 -0.001,-0.032 0.003,-0.064 0.013,-0.096 0.007,-0.018 0.047,-0.13 0.166,-0.235 -0.999,-1.842 -2.173,-4.129 -2.43,-5.187 l -1.318,-0.992 -0.447,0.006 c -0.074,-0.008 -0.146,-0.029 -0.196,-0.083 l -1.342,-1.481 c -0.608,-0.358 -1.283,-0.745 -1.429,-0.81 -0.064,-0.013 -0.176,-0.067 -0.596,-0.269 -0.576,-0.279 -1.929,-0.932 -2.217,-0.933 -0.301,0.067 -1.064,0.253 -1.399,0.335 l -0.375,2.021 c 0.184,0.223 0.523,0.652 0.605,0.857 0.088,0.224 0.451,2.247 0.558,2.861 0.006,0.035 0.004,0.069 -0.002,0.102 l -0.102,0.443 0.357,1.03 c 0.016,0.05 0.017,0.105 0.003,0.156 -0.009,0.026 -0.078,0.241 -0.207,0.451 0.011,0.192 0.039,0.627 0.02,0.85 -0.018,0.201 -0.091,0.384 -0.148,0.499 0.177,0.487 0.786,2.391 0.294,4.361 -0.016,0.067 -0.062,0.126 -0.123,0.161 -0.061,0.034 -0.135,0.041 -0.201,0.02 -0.07,-0.021 -0.552,-0.18 -0.945,-0.464 -0.012,0.016 -0.03,0.03 -0.047,0.041 -0.062,0.038 -0.14,0.049 -0.206,0.03 -0.062,-0.017 -1.438,-0.411 -2.081,-1.315 -0.148,0.069 -0.363,0.22 -0.456,0.526 0.293,0.178 0.852,0.597 1.066,1.299 0.022,0.064 0.016,0.131 -0.012,0.19 -0.041,0.08 -0.404,0.796 -0.719,1.063 -0.029,0.024 -0.062,0.041 -0.097,0.052 -0.014,0.004 -0.363,0.098 -0.916,0.098 -1.554,0 -4.472,-0.711 -6.567,-5.465 -0.039,-0.089 -0.023,-0.194 0.039,-0.268 0.067,-0.075 0.167,-0.107 0.261,-0.08 l 2.012,0.533 c 0.058,0.015 0.111,0.052 0.146,0.104 0.601,0.89 1.463,0.986 1.807,0.986 0.483,0 0.852,-0.171 0.99,-0.362 -0.174,-0.242 -0.525,-0.783 -0.658,-1.386 -0.378,-0.298 -1.885,-1.61 -1.896,-3.652 -0.008,-1.585 0.519,-2.855 0.835,-3.614 0.089,-0.226 0.198,-0.481 0.199,-0.552 0,-0.127 0.093,-0.235 0.218,-0.253 0.31,-0.047 0.647,-0.144 0.739,-0.194 -0.024,-0.652 -0.09,-1.392 -0.165,-1.679 -0.416,-0.039 -1.581,-0.149 -2.169,-0.152 -0.26,-0.042 -2.495,-0.428 -3.162,-1.51 l -0.962,-0.284 c -0.226,-0.107 -1.317,-0.644 -1.606,-1.214 l -0.587,-0.354 -0.813,0.291 2.187,1.566 c 0.113,-0.007 0.226,0.015 0.326,0.064 0.345,0.166 0.491,0.582 0.324,0.931 -0.165,0.339 -0.604,0.486 -0.93,0.325 -0.155,-0.073 -0.274,-0.205 -0.336,-0.366 l -2.878,-0.931 -0.027,0.028 c 0.037,0.112 0.078,0.215 0.078,0.216 0.022,0.056 0.022,0.117 0.003,0.175 -0.054,0.153 -0.127,0.262 -0.193,0.336 l 0.068,0.247 c 0.016,0.056 0.013,0.116 -0.009,0.168 -0.046,0.106 -0.157,0.21 -0.337,0.312 l -0.064,0.3 c -0.009,0.039 -0.029,0.076 -0.052,0.107 -0.101,0.127 -0.235,0.209 -0.348,0.259 l 0.125,0.577 c 0.011,0.057 0.006,0.116 -0.023,0.168 -0.188,0.38 -0.541,0.516 -0.837,0.516 l -0.002,0 c -0.072,-0.004 -0.137,-0.038 -0.181,-0.092 l -0.162,-0.19 -0.382,0.034 -1.183,2.123 -0.008,0.374 c -0.003,0.093 -0.053,0.176 -0.134,0.22 l -0.423,0.225 c 0.105,0.62 -0.172,1.312 -0.186,1.345 -0.022,0.057 -0.067,0.104 -0.121,0.131 -0.858,0.437 -1.228,0.993 -1.232,0.998 -0.033,0.054 -0.086,0.093 -0.148,0.11 l -0.448,0.117 c -0.123,0.032 -0.25,-0.03 -0.3,-0.147 l -0.184,-0.424 c -0.025,-0.057 -0.027,-0.124 -0.006,-0.182 0.002,-0.006 0.209,-0.642 0.022,-1.586 -0.011,-0.06 -0.002,-0.123 0.03,-0.175 0.016,-0.031 0.389,-0.678 0.937,-0.981 l -0.084,-0.47 c -0.016,-0.091 0.019,-0.184 0.09,-0.242 l 0.291,-0.241 1.044,-2.417 -0.22,-0.422 c -0.012,-0.027 -0.021,-0.055 -0.026,-0.084 l -0.408,-3.091 c -0.006,-0.032 -0.004,-0.064 0.006,-0.097 0.069,-0.275 0.198,-0.524 0.374,-0.728 l -1.314,-0.88 c -0.162,0.049 -0.336,0.037 -0.494,-0.038 -0.169,-0.082 -0.295,-0.226 -0.355,-0.403 -0.061,-0.176 -0.048,-0.365 0.033,-0.529 0.16,-0.335 0.605,-0.481 0.928,-0.324 0.103,0.047 0.185,0.12 0.255,0.217 l 2.67,0.776 1.32,-0.56 c 1.228,-2.602 4.318,-9.097 7.426,-15.29 0.069,-2.672 0.653,-5.393 1.727,-8.09 -0.056,-0.494 -0.36,-3.461 0.181,-5.168 -0.778,-0.232 -1.822,-0.525 -2.072,-0.543 -0.131,-0.011 -0.237,-0.122 -0.237,-0.255 0,-0.088 0.022,-2.163 1.806,-3.271 0.883,-0.547 1.188,-0.844 1.293,-0.972 l -2.05,-1.697 c -0.014,-0.012 -0.025,-0.027 -0.034,-0.042 0.535,-0.642 1.083,-1.273 1.64,-1.894 1.579,1.367 3.632,2.2 5.88,2.2 2.246,0 4.296,-0.831 5.876,-2.193 0.595,0.664 1.181,1.342 1.755,2.032 l -1.815,1.306 z"
                 style="fill:#172339;fill-opacity:1;fill-rule:nonzero;stroke:none"
                 id="path7188"
                 inkscape:connector-curvature="0" />
            </g>
            <g
               id="g7190"
               transform="matrix(10.880585,0,0,10.880585,1503.2208,2568.3141)">
              <path
                 d="m 0,0 c -0.01,0 -0.021,0.004 -0.026,0.014 -0.173,0.265 -0.56,0.539 -0.964,0.685 -0.434,0.156 -0.494,0.343 -0.5,0.415 -0.002,0.013 0.006,0.027 0.017,0.032 0.147,0.076 0.293,0.115 0.438,0.115 0.537,0 0.871,-0.533 0.875,-0.539 C -0.052,0.613 0.005,0.291 0.034,0.037 0.035,0.021 0.027,0.006 0.013,0.002 0.009,0 0.005,0 0,0 M 2.597,-1.133 C 2.588,-1.133 2.578,-1.13 2.57,-1.121 2.32,-0.837 1.709,-0.158 1.432,-0.019 1.383,0.005 1.332,0.017 1.28,0.017 1.043,0.017 0.848,-0.242 0.795,-0.321 0.791,-0.328 0.783,-0.333 0.773,-0.335 l -0.005,0 C 0.76,-0.335 0.756,-0.333 0.75,-0.33 0.502,-0.159 0.351,0.116 0.269,0.317 0.262,0.332 0.266,0.349 0.279,0.356 0.285,0.361 0.293,0.364 0.299,0.364 0.307,0.364 0.315,0.36 0.321,0.355 0.561,0.131 0.858,0.101 1.09,0.101 1.199,0.101 1.308,0.109 1.411,0.116 1.508,0.123 1.596,0.13 1.682,0.13 1.826,0.13 1.925,0.11 1.999,0.067 2.271,-0.095 2.51,-0.727 2.629,-1.089 2.633,-1.104 2.627,-1.121 2.612,-1.127 2.607,-1.13 2.602,-1.133 2.597,-1.133 M 1.908,-2.222 c -0.014,0 -0.028,0.01 -0.031,0.026 -0.179,0.683 -1.148,1.252 -2.352,1.385 -0.137,0.016 -0.285,0.022 -0.433,0.022 -0.09,0 -0.186,-0.002 -0.281,-0.008 l -0.002,0 c -0.012,0 -0.025,0.008 -0.03,0.02 l -0.158,0.358 c -0.003,0.009 -0.003,0.021 0.002,0.03 0.006,0.009 0.014,0.014 0.025,0.016 0.095,0.013 0.206,0.021 0.347,0.026 -0.173,0.149 -0.443,0.344 -0.741,0.443 -0.018,0.005 -0.026,0.02 -0.024,0.037 0.003,0.015 0.016,0.028 0.034,0.028 0.478,-0.013 1.319,-0.103 1.593,-0.573 1.227,-0.225 2.106,-0.973 2.084,-1.776 0,-0.019 -0.013,-0.032 -0.029,-0.034 l -0.004,0 z m -1.941,-1.812 c -0.004,0 -0.012,0.003 -0.016,0.005 -0.236,0.13 -0.586,0.157 -0.84,0.157 -0.086,0 -0.156,-0.003 -0.195,-0.006 l -0.002,0 c -0.009,0 -0.018,0.003 -0.023,0.009 -0.006,0.006 -0.01,0.014 -0.012,0.024 l -0.021,1.098 c 0,0.013 0.011,0.027 0.023,0.031 0.107,0.037 0.22,0.058 0.333,0.058 0.474,0 0.845,-0.336 0.917,-0.403 0.008,-0.008 0.012,-0.018 0.008,-0.029 L 0,-4.005 c -0.002,-0.012 -0.008,-0.02 -0.021,-0.025 0,-0.003 -0.005,-0.004 -0.012,-0.004 m -1.142,-2.74 c -0.006,0 -0.013,0 -0.017,0.004 -0.011,0.006 -0.017,0.018 -0.016,0.029 l 0.083,1.729 c 0,0.018 0.013,0.03 0.03,0.032 0.066,0.006 0.157,0.013 0.247,0.013 0.034,0 0.068,-0.001 0.102,-0.003 0.017,-0.002 0.031,-0.015 0.031,-0.033 l 0.026,-1.15 0.026,0.014 0.142,1.105 c 0.001,0.009 0.005,0.017 0.013,0.022 0.006,0.004 0.013,0.007 0.02,0.007 l 0.005,0 c 0.096,-0.017 0.187,-0.038 0.27,-0.062 0.014,-0.004 0.026,-0.018 0.025,-0.033 l -0.079,-1.528 c 0,-0.012 -0.007,-0.022 -0.018,-0.029 -0.005,-0.001 -0.011,-0.002 -0.016,-0.002 -0.006,0 -0.011,0.002 -0.015,0.005 l -0.317,0.198 -0.525,-0.314 c -0.004,-0.004 -0.011,-0.004 -0.017,-0.004 m -0.856,-0.635 c -0.011,0.002 -0.023,0.011 -0.026,0.024 l -0.069,0.221 c -0.005,0.013 10e-4,0.028 0.013,0.038 l 0.111,0.076 c 0.004,0.004 0.012,0.006 0.018,0.006 0.006,0 0.009,-0.001 0.013,-0.003 0.012,-0.005 0.019,-0.014 0.019,-0.027 0.011,-0.065 0.017,-0.193 -0.046,-0.317 -0.004,-0.01 -0.015,-0.018 -0.029,-0.018 l -0.004,0 z m 2.72,-2.484 c -0.012,0 -0.023,0.006 -0.03,0.018 -0.116,0.251 -0.426,0.864 -0.802,1.144 -0.006,0.005 -0.011,0.014 -0.013,0.023 0,0.009 0.003,0.018 0.009,0.024 0.1,0.129 0.162,0.242 0.162,0.301 0,0 -0.999,0.033 -1.006,0.033 -0.021,-0.013 -0.488,-0.338 -0.647,-0.592 -0.007,-0.01 -0.018,-0.016 -0.028,-0.016 -0.003,0 -0.007,0 -0.01,0 -0.013,0.004 -0.022,0.016 -0.023,0.03 l -0.02,0.185 c 0,0.008 0.001,0.014 0.004,0.02 0.033,0.059 0.217,0.366 0.621,0.609 0.004,0.001 0.01,0.003 0.015,0.003 l 0.954,0.105 -0.006,0.04 -0.515,0.315 -0.668,-0.322 c -0.007,-0.003 -0.01,-0.003 -0.014,-0.003 -0.006,0 -0.008,0 -0.012,0.001 l -0.212,0.071 c -0.011,0.003 -0.02,0.015 -0.022,0.028 -0.002,0.012 0.005,0.025 0.015,0.031 l 0.89,0.542 c 0.006,0.005 0.012,0.006 0.018,0.006 0.005,0 0.008,-0.001 0.012,-0.004 l 0.506,-0.209 0.007,0.029 -0.525,0.439 -0.949,-0.551 c -0.004,-0.003 -0.01,-0.005 -0.015,-0.005 -0.006,0 -0.01,0.002 -0.017,0.005 -0.011,0.005 -0.016,0.014 -0.016,0.026 l -0.015,0.175 c -0.002,0.015 0.005,0.026 0.017,0.034 l 1.021,0.59 c 0.004,0.004 0.01,0.005 0.016,0.005 0.006,0 0.012,-0.001 0.017,-0.005 l 0.493,-0.294 c 0,-10e-4 0.005,-0.003 0.007,-0.004 l 0.49,-0.45 C 0.404,-7.519 0.406,-7.524 0.409,-7.53 l 0.32,-0.912 c 0.005,-0.003 0.005,-0.007 0.005,-0.01 L 0.723,-9.861 c 0,-0.015 -0.01,-0.03 -0.027,-0.032 l -0.007,0 z m -1.442,-1.289 c -0.006,0 -0.012,0.002 -0.018,0.006 -0.208,0.131 -0.471,0.146 -0.575,0.147 -0.008,0 -0.017,0.003 -0.024,0.01 -0.005,0.007 -0.009,0.016 -0.009,0.025 l 0.063,0.657 c 0.001,0.015 0.009,0.026 0.025,0.03 0.069,0.013 0.141,0.018 0.21,0.018 0.228,0 0.399,-0.069 0.463,-0.099 0.013,-0.007 0.019,-0.021 0.018,-0.036 l -0.12,-0.729 c -0.001,-0.011 -0.009,-0.021 -0.019,-0.026 -0.004,-0.002 -0.009,-0.003 -0.014,-0.003 m -15.616,-0.315 c -0.012,0 -0.022,0.007 -0.029,0.015 -0.192,0.309 -0.15,0.664 -0.149,0.68 l -0.261,-0.106 c -0.004,-0.001 -0.007,-0.003 -0.01,-0.003 -0.006,0 -0.011,0.002 -0.017,0.005 -0.009,0.004 -0.016,0.011 -0.018,0.022 -0.045,0.214 -0.04,0.434 0.025,0.67 0.004,0.012 0.014,0.023 0.029,0.024 l 0.003,0 c 0.012,0 0.022,-0.007 0.028,-0.018 0.216,-0.417 0.56,-0.607 0.748,-0.686 0.007,-0.003 0.016,-0.009 0.018,-0.021 0.004,-0.009 10e-4,-0.02 -0.005,-0.029 -0.194,-0.256 -0.291,-0.445 -0.331,-0.533 -0.005,-0.012 -0.016,-0.019 -0.028,-0.02 l -0.003,0 m 1.986,-0.038 c -0.003,0 -0.007,10e-4 -0.012,0.002 -0.014,0.006 -0.023,0.024 -0.019,0.039 0.082,0.307 0.229,0.785 0.466,1.313 0.005,0.014 0.016,0.021 0.031,0.021 l 0.002,0 c 0.015,-0.002 0.027,-0.013 0.029,-0.027 l 0.04,-0.226 0.49,0.656 c 0.127,0.169 0.386,0.315 0.58,0.41 0.003,0 0.009,0.003 0.013,0.003 0.005,0 0.01,-0.003 0.016,-0.005 0.008,-0.005 0.016,-0.013 0.017,-0.024 0.014,-0.089 0.025,-0.179 0.035,-0.266 0.004,-0.01 -0.002,-0.021 -0.01,-0.029 -0.285,-0.253 -1.247,-1.136 -1.648,-1.851 -0.006,-0.01 -0.018,-0.016 -0.03,-0.016 m 13.465,-0.414 c -0.009,0 -0.012,0.002 -0.018,0.006 -0.16,0.107 -0.468,0.139 -0.558,0.146 -0.011,0 -0.02,0.005 -0.027,0.013 -0.004,0.008 -0.006,0.017 -0.004,0.026 l 0.05,0.262 c 0.004,0.016 0.017,0.028 0.034,0.028 l 0.002,0 c 0.21,-0.006 0.447,-0.064 0.512,-0.081 0.015,-0.003 0.027,-0.016 0.028,-0.03 l 0.015,-0.336 c 0,-0.011 -0.007,-0.023 -0.016,-0.029 -0.005,-0.003 -0.012,-0.005 -0.018,-0.005 m -17.504,-2.18 c -0.008,0 -0.015,0.004 -0.021,0.009 -0.01,0.009 -0.012,0.022 -0.008,0.035 0.043,0.119 0.107,0.359 0.064,0.64 -0.002,0.009 0.003,0.02 0.011,0.027 0.131,0.131 1.3,1.278 2.119,1.425 l 0.006,0 0.004,0 c 0.046,-0.006 0.295,-0.041 0.606,-0.13 0.002,0 0.258,0.153 0.519,0.153 0.199,0 0.351,-0.085 0.45,-0.253 0.008,-0.011 0.005,-0.026 -0.002,-0.037 -0.007,-0.008 -0.017,-0.013 -0.027,-0.013 -0.003,0 -0.007,0 -0.01,0.003 -0.088,0.033 -0.229,0.07 -0.409,0.07 -0.282,0 -0.71,-0.102 -1.135,-0.591 -0.003,-0.004 -0.011,-0.007 -0.016,-0.008 -0.102,-0.029 -0.955,-0.268 -1.284,-0.605 -0.022,-0.023 -0.007,-0.054 -0.007,-0.054 l 0.492,0.147 c 0.003,10e-4 0.005,10e-4 0.009,10e-4 0.011,0 0.024,-0.005 0.029,-0.018 0.007,-0.015 0.003,-0.033 -0.011,-0.041 -0.286,-0.211 -0.843,-0.588 -1.367,-0.76 l -0.012,0 m 2.649,-0.567 c -0.011,0 -0.022,0.006 -0.029,0.015 -0.007,0.013 -0.006,0.03 0.004,0.041 0.096,0.107 0.246,0.235 0.428,0.235 0.16,0 0.306,-0.104 0.4,-0.193 0.012,-0.01 0.013,-0.027 0.005,-0.041 -0.005,-0.009 -0.016,-0.015 -0.028,-0.015 l -0.01,0 c -0.077,0.026 -0.165,0.037 -0.265,0.037 -0.188,0 -0.374,-0.042 -0.497,-0.078 -10e-4,-10e-4 -0.006,-10e-4 -0.008,-10e-4 m -3.547,-0.907 c -0.007,0 -0.012,10e-4 -0.017,0.006 -0.015,0.008 -0.02,0.025 -0.014,0.04 0.115,0.262 0.446,0.72 1.358,0.859 0,0.001 0.003,0.001 0.003,0.001 0.014,0 0.026,-0.006 0.031,-0.017 0.007,-0.011 0.005,-0.026 0,-0.036 l -0.293,-0.379 c -0.005,-0.009 -0.016,-0.012 -0.022,-0.014 -0.108,-0.005 -0.661,-0.052 -1.021,-0.449 -0.005,-0.007 -0.016,-0.011 -0.025,-0.011 m -0.663,-0.224 c -0.004,0 -0.009,0 -0.015,10e-4 -0.012,0.007 -0.022,0.024 -0.017,0.039 0.078,0.299 0.32,0.673 0.328,0.688 -0.034,-0.005 -0.071,-0.023 -0.117,-0.049 -0.006,-0.003 -0.01,-0.005 -0.016,-0.005 -0.008,0 -0.016,0.004 -0.025,0.009 -0.008,0.01 -0.011,0.026 -0.004,0.04 0.116,0.246 0.349,0.386 0.474,0.449 0.186,0.089 0.373,0.316 0.468,0.442 0.005,0.008 0.016,0.014 0.026,0.014 0.006,0 0.012,-0.002 0.015,-0.004 0.012,-0.007 0.021,-0.024 0.016,-0.039 -0.043,-0.157 -0.11,-0.297 -0.11,-0.3 0.004,10e-4 0.296,0.023 0.296,0.023 0.015,0 0.027,-0.007 0.033,-0.02 0.005,-0.012 0.003,-0.027 -0.008,-0.037 -0.09,-0.086 -0.286,-0.261 -0.595,-0.476 -0.322,-0.225 -0.589,-0.573 -0.722,-0.761 -0.007,-0.01 -0.015,-0.014 -0.027,-0.014 m 1.115,-0.048 c -0.016,0.002 -0.027,0.014 -0.028,0.031 -0.006,0.104 0.017,0.202 0.067,0.282 0.083,0.141 0.241,0.236 0.47,0.285 l 0.008,0 c 0.009,0 0.02,-0.006 0.027,-0.016 0.009,-0.011 0.009,-0.026 -10e-4,-0.038 l -0.114,-0.161 c -0.003,-0.004 -0.01,-0.01 -0.015,-0.013 -0.047,-0.015 -0.278,-0.108 -0.379,-0.351 -0.004,-0.012 -0.017,-0.021 -0.03,-0.021 -0.001,0 -0.003,0 -0.005,0.002 m -16.665,-1.339 c -0.005,0 -0.006,0 -0.009,0.002 -0.015,0.003 -0.023,0.018 -0.023,0.032 0.005,0.176 -0.033,0.384 -0.112,0.618 -0.006,0.016 10e-4,0.033 0.015,0.04 0.003,0.003 0.01,0.005 0.015,0.005 0.009,0 0.019,-0.004 0.026,-0.012 0.059,-0.07 0.158,-0.179 0.294,-0.307 0.01,-0.011 0.013,-0.024 0.009,-0.037 -0.046,-0.117 -0.127,-0.243 -0.186,-0.328 -0.008,-0.008 -0.018,-0.013 -0.029,-0.013 m 17.179,-0.934 c -0.551,0.003 -0.943,0.137 -1.165,0.4 -0.133,0.156 -0.175,0.327 -0.189,0.445 0,0.016 0.007,0.03 0.023,0.036 0.003,0 0.007,0.001 0.011,0.001 0.012,0 0.022,-0.007 0.029,-0.018 0.112,-0.207 0.318,-0.332 0.452,-0.394 0.067,-0.031 0.067,-0.021 0.044,-0.004 -0.356,0.241 -0.347,0.757 -0.345,0.863 0.002,0.015 0.014,0.028 0.028,0.03 0.02,0.006 0.046,0.009 0.066,0.009 0.152,0 0.26,-0.124 0.313,-0.198 0.008,-0.011 0.009,-0.024 0.004,-0.035 -0.007,-0.011 -0.018,-0.017 -0.03,-0.017 -0.001,0 -0.17,0.008 -0.175,0.008 0,-0.429 0.53,-0.582 0.537,-0.584 l 0.449,-0.165 c 0.015,-0.006 0.025,-0.021 0.024,-0.036 l -0.044,-0.311 c -0.003,-0.017 -0.016,-0.03 -0.032,-0.03 m 3.562,3.117 c 0.011,0 0.021,-0.005 0.025,-0.013 0.009,-0.009 0.01,-0.022 0.003,-0.034 l -0.209,-0.496 c 0,0 0.019,-0.018 0.036,-0.01 0.471,0.262 0.817,0.82 0.832,0.844 l -0.093,0.311 c -0.197,0.319 -0.756,0.513 -0.97,0.577 -0.047,0.015 -0.055,-0.005 -0.041,-0.02 0.129,-0.129 0.201,-0.246 0.236,-0.306 0.006,-0.012 0.005,-0.025 -0.003,-0.035 -0.005,-0.01 -0.016,-0.016 -0.027,-0.016 -0.002,0 -0.003,0 -0.006,10e-4 l -0.645,0.1 c -0.276,-0.031 -0.658,-0.523 -0.702,-0.579 -0.003,-0.007 -0.01,-0.011 -0.017,-0.013 l -0.382,-0.095 c 0.032,-0.357 0.439,-0.613 0.453,-0.623 l 0.201,0.239 c 0.007,0.007 0.018,0.011 0.026,0.011 0.006,0 0.011,-10e-4 0.018,-0.005 0.11,-0.067 0.401,-0.123 0.634,-0.157 0.064,-0.008 0.099,-0.003 0.064,0.009 -0.207,0.069 -0.355,0.183 -0.446,0.273 -0.01,0.01 -0.012,0.028 -0.006,0.04 0.006,0.01 0.018,0.017 0.029,0.017 0.003,0 0.008,-0.001 0.01,-0.002 0.122,-0.034 0.281,-0.053 0.472,-0.053 0.209,0 0.406,0.022 0.504,0.033 0.002,0.002 0.003,0.002 0.004,0.002 m 1.312,-3.756 c -0.011,0 -0.023,0.004 -0.027,0.013 -0.156,0.225 -0.752,0.413 -1.046,0.482 -0.502,-0.149 -1.175,-0.248 -1.366,-0.275 l -0.006,0 c -0.007,0 -0.015,0.003 -0.022,0.009 -0.007,0.006 -0.011,0.015 -0.011,0.025 l 0.009,1.155 c -0.247,0.762 -1.771,1.122 -1.945,1.16 -0.018,0.004 -0.025,0.018 -0.025,0.033 0.014,0.572 0.786,1.244 0.793,1.25 0.233,1.024 1.167,1.909 1.352,2.078 0.007,0.005 0.015,0.008 0.023,0.008 10e-4,0 0.006,-10e-4 0.009,-0.002 0.012,-0.003 0.02,-0.012 0.023,-0.023 0.041,-0.15 0.17,-0.502 0.531,-0.548 0.014,-0.003 0.03,-0.003 0.044,-0.003 0.416,0 0.768,0.751 0.806,0.837 0.002,0.005 0.006,0.008 0.007,0.012 0.185,0.166 0.474,0.202 0.683,0.202 0.198,0 0.365,-0.031 0.398,-0.038 0.004,-10e-4 0.01,-0.004 0.013,-0.006 0.089,-0.074 0.152,-0.208 0.183,-0.393 10e-4,-0.006 0,-0.01 0,-0.015 l -0.01,-0.027 c -0.006,-0.012 -0.013,-0.021 -0.026,-0.022 -0.002,-10e-4 -0.004,-10e-4 -0.005,-10e-4 -0.013,0 -0.021,0.004 -0.027,0.013 -0.076,0.1 -0.173,0.151 -0.287,0.151 -0.195,0 -0.38,-0.142 -0.448,-0.2 -0.017,-0.013 -0.018,-0.057 -0.012,-0.072 0.142,-0.468 0.42,-0.786 0.87,-0.997 0.009,-0.006 0.019,-0.018 0.018,-0.032 -0.004,-0.161 -0.023,-0.437 -0.033,-0.589 0,-0.008 -0.005,-0.018 -0.016,-0.023 -0.003,-0.004 -0.01,-0.006 -0.017,-0.006 -0.002,0 -0.006,0 -0.008,0.002 -0.208,0.061 -0.379,0.074 -0.397,0.075 l -0.162,-0.119 -0.013,-0.043 0.41,-1.222 c 0.003,-0.01 0.001,-0.023 -0.01,-0.031 -0.002,-0.008 -0.011,-0.013 -0.021,-0.013 -0.002,0 -0.005,0 -0.006,10e-4 -0.057,0.013 -0.111,0.018 -0.161,0.018 -0.24,0 -0.369,-0.123 -0.414,-0.178 -0.004,-0.007 -0.015,-0.011 -0.024,-0.011 l -0.005,0 c -0.015,0.003 -0.028,0.003 -0.042,0.003 -0.194,0 -0.37,-0.215 -0.434,-0.309 -0.019,-0.023 0.012,-0.061 0.012,-0.061 l 0.211,-0.115 c 0.012,-0.007 0.021,-0.021 0.017,-0.036 -0.004,-0.014 -0.014,-0.026 -0.029,-0.026 -0.508,-0.064 -0.925,-0.346 -1.041,-0.431 -0.018,-0.014 -0.01,-0.036 10e-4,-0.042 0.334,-0.181 0.583,-0.571 0.656,-0.692 0.012,-0.02 0.035,-0.033 0.054,-0.027 0.044,0.014 0.141,0.037 0.246,0.037 0.126,0 0.228,-0.032 0.307,-0.093 0.108,-0.086 0.262,-0.104 0.373,-0.104 0.057,0 0.097,0.006 0.103,0.006 0.021,0.07 -0.035,0.183 -0.07,0.239 -0.177,0.032 -0.382,0.18 -0.405,0.197 l -0.013,0 c -0.12,0 -0.464,0.118 -0.659,0.185 -0.013,0.005 -0.02,0.017 -0.022,0.03 -10e-4,0.013 0.008,0.025 0.019,0.031 0.142,0.071 0.273,0.108 0.392,0.108 0.236,0 0.344,-0.142 0.349,-0.147 0.02,0.002 0.041,0.003 0.061,0.003 0.185,0 0.282,-0.095 0.324,-0.151 0.018,-0.024 0.039,-0.016 0.043,-0.002 0.09,0.226 -0.019,0.57 -0.054,0.674 -0.004,0.01 -0.004,0.021 0.003,0.031 0.007,0.008 0.017,0.013 0.026,0.013 l 0.186,0.01 c 0.027,0.043 0.043,0.145 0.043,0.281 0,0.013 0.01,0.025 0.024,0.03 0.003,0.002 0.007,0.004 0.012,0.004 0.007,0 0.017,-0.005 0.024,-0.013 0.04,-0.044 0.068,-0.092 0.08,-0.114 0.007,-0.007 0.007,-0.016 0.007,-0.022 -0.117,-0.648 -0.279,-1.538 -0.394,-2.106 -0.003,-0.014 -0.015,-0.024 -0.026,-0.026 l -0.006,0 m -21.243,-0.705 c -0.007,0 -0.013,0.002 -0.02,0.006 -0.008,0.007 -0.013,0.02 -0.012,0.033 l 0.049,0.295 c 0.152,0.492 0.123,1.007 0.1,1.241 -0.009,0.081 -0.03,0.08 -0.04,0.056 -0.082,-0.25 -0.255,-0.431 -0.391,-0.542 -0.005,-0.005 -0.014,-0.007 -0.022,-0.007 -0.008,0 -0.013,0.002 -0.02,0.008 -0.013,0.011 -0.015,0.028 -0.009,0.041 0.185,0.326 0.171,0.667 0.146,0.833 -0.007,0.058 -0.039,0.051 -0.049,0.029 -0.107,-0.202 -0.274,-0.301 -0.373,-0.344 -0.004,0 -0.009,-0.002 -0.014,-0.002 -0.007,0 -0.017,0.003 -0.023,0.01 -0.011,0.009 -0.013,0.024 -0.006,0.037 0.147,0.313 0.137,0.667 0.117,0.848 -0.003,0.015 0.005,0.028 0.018,0.035 0.005,10e-4 0.008,0.002 0.014,0.002 0.009,0 0.016,-0.002 0.022,-0.007 0.247,-0.218 0.518,-0.41 0.809,-0.572 0.01,-0.005 0.016,-0.011 0.018,-0.018 0.099,-0.306 0.17,-0.732 0.079,-1.012 l -0.091,-0.279 0.446,-0.241 c 0.012,-0.006 0.017,-0.02 0.017,-0.033 -0.001,-0.011 -0.007,-0.023 -0.02,-0.027 -0.334,-0.122 -0.577,-0.275 -0.728,-0.383 -0.006,-0.005 -0.01,-0.007 -0.017,-0.007 m 31.727,-1.802 c -0.012,0 -0.024,0.006 -0.028,0.019 -0.216,0.429 -0.769,1.213 -2.061,1.633 -0.013,0.005 -0.021,0.014 -0.023,0.026 -0.003,0.012 0.003,0.024 0.012,0.031 l 1.348,1.044 0.029,0.131 c 0.024,0.114 0.063,0.254 0.112,0.404 0.003,0.005 0.005,0.009 0.01,0.012 0.61,0.611 1.664,1.827 1.87,3.113 l -0.185,0.477 c -0.002,0.01 -0.002,0.02 0.002,0.029 0.334,0.632 0.711,1.329 1.156,2.13 0.003,0.004 0.006,0.008 0.011,0.011 l 1.395,0.95 c 0.007,0.004 0.014,0.006 0.021,0.006 0.006,0 0.011,-0.002 0.016,-0.004 0.012,-0.007 0.017,-0.018 0.017,-0.032 -0.109,-2.116 -0.52,-3.934 -0.848,-5.086 -0.003,-0.008 -0.007,-0.016 -0.016,-0.021 -0.004,-0.001 -0.01,-0.002 -0.016,-0.002 -0.004,0 -0.007,10e-4 -0.012,0.002 -0.08,0.028 -0.151,0.067 -0.218,0.116 -0.003,-0.012 -0.158,-1.22 -0.694,-2.087 -0.006,-0.011 -0.017,-0.016 -0.027,-0.016 l -0.006,0 -0.645,0.115 c 0,0 -0.038,-0.02 -0.019,-0.051 0.098,-0.149 0.327,-0.513 0.35,-0.672 0.002,-0.005 0.002,-0.01 0,-0.016 l -0.207,-0.54 c -0.004,-0.013 -0.014,-0.02 -0.028,-0.021 l -0.324,-0.03 -0.283,-0.609 c -0.004,-0.008 -0.012,-0.015 -0.02,-0.017 l -0.716,-0.217 0.06,-0.793 c 0.003,-0.015 -0.008,-0.03 -0.023,-0.033 -0.004,-10e-4 -0.006,-0.002 -0.01,-0.002 m -30.467,-2.051 c -0.004,0 -0.009,10e-4 -0.012,0.002 l -0.192,0.074 c -0.009,0.004 -0.02,0.012 -0.02,0.021 -0.001,0.009 0,0.021 0.003,0.029 0.022,0.032 0.052,0.08 0.091,0.137 0.172,0.266 0.489,0.752 0.629,0.874 l -1.215,2.505 c -0.004,0.008 -0.004,0.017 0,0.027 0.001,0.007 0.008,0.013 0.017,0.019 0.136,0.064 0.265,0.117 0.396,0.16 0.003,0.001 0.005,0.002 0.008,0.002 0.013,0 0.027,-0.006 0.031,-0.018 l 1.348,-2.474 1.212,-0.098 c 0.007,-10e-4 0.017,-0.006 0.021,-0.013 0.037,-0.046 0.066,-0.089 0.085,-0.127 0.003,-0.007 0.005,-0.014 0.002,-0.022 l -0.039,-0.153 c -0.005,-0.014 -0.019,-0.026 -0.031,-0.026 -0.002,0 -0.885,0.064 -0.897,0.064 -0.386,-0.128 -1.215,-0.802 -1.418,-0.976 -0.006,-0.005 -0.01,-0.007 -0.019,-0.007 m 0.431,-0.468 c -0.231,0 -0.438,0.08 -0.54,0.128 -0.013,0.007 -0.021,0.019 -0.02,0.033 10e-4,0.014 0.011,0.025 0.024,0.029 l 0.408,0.124 c 0.609,0.432 1.413,0.78 1.42,0.784 0.172,0.051 0.385,0.072 0.537,0.081 0.012,0 0.021,-0.005 0.026,-0.012 0.01,-0.008 0.011,-0.02 0.008,-0.029 l -0.057,-0.221 c -0.003,-0.014 -0.015,-0.024 -0.027,-0.024 l -0.202,-0.027 -1.473,-0.699 -0.018,-0.138 c -0.002,-0.014 -0.014,-0.028 -0.031,-0.028 -0.018,-10e-4 -0.038,-10e-4 -0.055,-10e-4 m 0.339,-0.528 c -0.08,0 -0.142,0.008 -0.188,0.024 -0.014,0.004 -0.02,0.014 -0.022,0.027 -0.002,0.013 0.004,0.025 0.012,0.031 l 0.347,0.22 c 0.043,0.028 1.074,0.678 1.629,0.784 l 0.007,0 0.275,-0.014 c 0.01,0 0.02,-0.005 0.024,-0.014 l 0.232,-0.317 c 0.005,-0.012 0.005,-0.025 0,-0.037 -0.007,-0.01 -0.018,-0.016 -0.03,-0.016 -0.002,0 -0.004,10e-4 -0.006,10e-4 -0.108,0.017 -0.204,0.026 -0.284,0.026 -0.069,0 -0.128,-0.007 -0.177,-0.02 l -1.433,-0.513 0,-0.113 c 0,-0.016 -0.011,-0.03 -0.029,-0.033 -0.059,-0.011 -0.214,-0.036 -0.357,-0.036 m 1.223,-0.506 c -0.004,0 -0.007,0 -0.009,0.002 -0.089,0.029 -0.25,0.091 -0.321,0.194 -0.007,0.007 -0.01,0.017 -0.009,0.026 0.003,0.009 0.009,0.017 0.015,0.022 l 0.861,0.516 c 0.018,0.011 0.189,0.094 0.503,0.134 l 0.003,0 c 0.011,0 0.022,-0.005 0.029,-0.016 0.044,-0.063 0.125,-0.179 0.177,-0.251 0.004,-0.011 0.004,-0.026 0,-0.039 -0.009,-0.008 -0.019,-0.013 -0.031,-0.013 -0.001,0 -0.005,10e-4 -0.007,10e-4 -0.04,0.01 -0.077,0.015 -0.112,0.015 -0.006,0 -0.017,0 -0.026,-0.001 l -1.025,-0.5 -0.017,-0.064 c 0,-0.009 -0.006,-0.017 -0.014,-0.022 -0.005,-0.002 -0.011,-0.004 -0.017,-0.004 m 1.395,-1.832 c -0.003,0 -0.008,0 -0.011,0.002 l -0.734,0.276 c -0.009,0.002 -0.015,0.009 -0.019,0.016 -0.005,0.01 -0.005,0.019 0,0.027 l 0.048,0.11 c 0.004,0.007 0.01,0.013 0.019,0.018 0.649,0.286 1.083,0.643 1.088,0.645 0.008,0.064 0.018,0.151 0.023,0.189 0.004,0.012 0.012,0.022 0.024,0.026 l 2.015,0.661 0.259,0.197 c 0.003,0.001 0.007,0.004 0.01,0.005 l 0.468,0.151 c 0.002,0.001 0.007,0.002 0.009,0.002 0.011,0 0.024,-0.008 0.029,-0.02 0.009,-0.014 0.004,-0.03 -0.01,-0.041 l -2.779,-2.057 -0.424,-0.204 c -0.004,-0.003 -0.009,-0.003 -0.015,-0.003 m 7.408,-0.533 c -0.016,0 -0.026,0.007 -0.03,0.02 -0.116,0.266 -0.449,0.937 -1.029,1.435 -0.233,0.199 -0.531,0.3 -0.887,0.3 -0.067,0 -0.14,-0.003 -0.212,-0.01 l -0.004,0 c -0.016,0 -0.028,0.01 -0.032,0.026 -0.005,0.017 0.005,0.034 0.023,0.038 l 0.901,0.259 c 0.003,0.002 0.006,0.002 0.009,0.002 0.003,0 0.006,0 0.009,-0.002 0.329,-0.076 0.575,-0.244 0.693,-0.34 0.051,-0.04 0.044,0.013 0.026,0.048 -0.16,0.31 -0.395,0.461 -0.533,0.526 -0.011,0.005 -0.016,0.014 -0.018,0.023 0,0.011 0,0.02 0.005,0.03 0.121,0.154 0.308,0.301 0.546,0.437 0.002,0.002 0.005,0.003 0.009,0.003 0.103,0.02 0.203,0.029 0.306,0.029 0.487,0 0.863,-0.218 1.003,-0.314 0.038,-0.028 0.047,0.001 0.038,0.024 -0.068,0.188 -0.207,0.389 -0.422,0.609 -0.007,0.008 -0.01,0.021 -0.007,0.031 0.003,0.01 0.011,0.02 0.021,0.025 0.195,0.06 0.534,0.156 0.69,0.198 0.002,0.001 0.004,0.002 0.006,0.002 0.011,0 0.016,-0.004 0.025,-0.01 0.757,-0.746 0.393,-1.854 0.263,-2.176 -0.002,-0.012 -0.017,-0.02 -0.031,-0.02 l -0.002,0 c -0.013,10e-4 -0.026,0.01 -0.029,0.024 -0.099,0.368 -0.274,0.575 -0.381,0.677 -0.054,0.049 -0.063,0.028 -0.048,0.003 0.181,-0.338 0.084,-0.841 0.07,-0.901 -0.001,-0.004 -0.004,-0.009 -0.005,-0.013 l -0.231,-0.345 c -0.007,-0.01 -0.016,-0.015 -0.029,-0.015 l -0.003,0 c -0.015,0.002 -0.023,0.011 -0.026,0.024 -0.097,0.336 -0.532,0.782 -0.714,0.958 -0.044,0.043 -0.038,0.006 -0.021,-0.029 0.267,-0.535 0.149,-1.253 0.083,-1.551 -0.003,-0.014 -0.013,-0.024 -0.03,-0.025 l -0.002,0 z m -1.131,-1.131 c -0.003,0 -0.006,0 -0.008,0.001 -0.017,0.004 -0.027,0.018 -0.026,0.035 0.045,0.713 -0.355,1.263 -0.521,1.455 -0.042,0.048 -0.042,-0.003 -0.031,-0.04 0.125,-0.441 0.039,-0.777 -0.031,-0.943 -0.007,-0.014 -0.018,-0.021 -0.03,-0.021 l -0.008,0 c -0.014,0.003 -0.026,0.015 -0.026,0.031 -0.022,0.85 -0.614,1.368 -0.871,1.553 -0.013,0.008 -0.018,0.024 -0.01,0.039 0.005,0.013 0.017,0.021 0.03,0.021 l 0.005,0 c 0.671,-0.1 1.185,-0.33 1.192,-0.332 -0.04,0.327 -0.108,0.538 -0.145,0.634 -0.005,0.011 -0.002,0.025 0.009,0.035 0.004,0.006 0.014,0.011 0.022,0.011 0.004,0 0.008,0 0.011,-0.003 0.798,-0.267 0.925,-0.931 0.933,-1.304 0.001,-0.015 -0.012,-0.029 -0.026,-0.032 -0.003,-0.001 -0.005,-0.001 -0.007,-0.001 -0.014,0 -0.026,0.008 -0.031,0.02 -0.064,0.146 -0.169,0.295 -0.244,0.392 -0.047,0.061 -0.057,0.044 -0.044,0.014 0.203,-0.504 0.021,-1.175 -0.113,-1.543 -0.005,-0.012 -0.019,-0.022 -0.03,-0.022 m -3.213,-0.03 c -0.003,0 -0.008,0.001 -0.011,0.002 l -1.966,0.651 c -0.007,0.002 -0.012,0.007 -0.018,0.015 -0.265,0.527 -0.43,0.861 -0.477,0.953 -0.008,0.014 -0.002,0.031 0.012,0.041 l 0.26,0.187 c 0.004,0.004 0.013,0.006 0.019,0.006 0.002,0 0.006,-10e-4 0.01,-0.002 l 1.754,-0.633 c 0.716,0.408 1.104,0.633 1.191,0.689 10e-4,0.004 0.008,0.006 0.017,0.006 0.002,0 0.007,-0.001 0.011,-0.002 0.99,-0.347 1.032,-1.15 1.032,-1.307 0,-0.015 -0.011,-0.027 -0.025,-0.032 L -27,-28.371 c -0.003,-0.001 -0.006,-0.002 -0.011,-0.002 m 18.572,-1.932 c -0.008,0 -0.018,0.004 -0.025,0.011 -0.634,0.722 -2.057,1.931 -4.462,1.931 -0.072,0 -0.144,-0.002 -0.216,-0.003 l -0.001,0 c -0.016,0 -0.031,0.012 -0.033,0.029 -0.003,0.017 0.008,0.033 0.025,0.035 l 0.752,0.176 0.016,0.042 -1.224,0.218 c -0.014,-0.001 -1.166,-0.17 -1.945,-0.768 -0.005,-0.005 -0.012,-0.007 -0.02,-0.007 -0.005,0 -0.011,0 -0.016,0.005 -0.012,0.005 -0.019,0.019 -0.017,0.033 l 0.042,0.294 c 0,0 -0.006,0.044 -0.029,0.037 -0.248,-0.106 -1.726,-0.761 -2.902,-1.843 -0.009,-0.006 -0.015,-0.009 -0.021,-0.009 -0.011,0 -0.019,0.004 -0.025,0.009 -0.012,0.013 -0.012,0.033 -0.003,0.046 0.427,0.493 1.056,1.163 1.694,1.649 0.047,0.034 0.055,0.062 0.01,0.041 -0.316,-0.14 -0.782,-0.316 -1.162,-0.46 -0.118,-0.045 -0.228,-0.086 -0.324,-0.124 -0.005,-10e-4 -0.008,-10e-4 -0.012,-10e-4 -0.012,0 -0.023,0.006 -0.029,0.017 -0.008,0.016 -0.002,0.034 0.012,0.045 l 1.886,1.155 6.05,3.236 c 0,0 0.02,0.048 -0.006,0.039 -0.872,-0.275 -4.406,-1.403 -5.247,-1.807 -0.003,-0.002 -0.007,-0.004 -0.014,-0.004 -0.003,0 -0.007,0.001 -0.011,0.003 l -0.475,0.181 c -0.012,0.005 -0.02,0.016 -0.02,0.028 -0.001,0.013 0.004,0.026 0.014,0.032 0.388,0.235 1.689,1.003 2.218,1.039 l 0.723,0.527 -0.043,0.019 -0.987,-0.328 c -0.021,-0.006 -1.996,-0.495 -2.495,-0.968 -0.005,-0.006 -0.013,-0.01 -0.022,-0.01 l -0.005,0 c -0.233,0.038 -2.293,0.379 -2.747,1.028 -0.023,-0.006 -0.552,-0.175 -0.748,-0.544 -0.004,-0.012 -0.018,-0.018 -0.031,-0.018 l -0.005,0 c -0.014,0.003 -0.024,0.015 -0.026,0.028 -0.036,0.303 -0.188,1.049 -0.806,1.454 -0.015,0.009 -0.022,0.023 -0.017,0.038 0.004,0.015 0.017,0.024 0.031,0.024 0.661,0.018 1.95,0.152 2.329,0.192 l 0.182,0.02 0.089,0.14 c 0.008,0.011 0.028,0.082 0.053,0.155 0.012,0.034 0.021,0.071 0.031,0.094 0.004,0.014 0.019,0.024 0.031,0.024 l 0.007,0 c 0.043,-0.01 0.088,-0.027 0.138,-0.046 0.088,-0.032 0.19,-0.068 0.32,-0.068 0.071,0 0.143,0.01 0.221,0.034 0.011,0.018 0.326,0.436 0.31,0.898 -0.001,0.014 0.006,0.025 0.018,0.032 0.002,10e-4 0.009,0.003 0.014,0.003 0.009,0 0.015,-0.002 0.023,-0.008 0.185,-0.148 0.681,-0.491 1.257,-0.491 0.061,0 0.122,0.004 0.18,0.011 l -0.604,1.037 c -0.012,0.011 -0.313,0.243 -0.517,0.373 -0.012,0.007 -0.019,0.022 -0.015,0.037 0.004,0.012 0.016,0.023 0.028,0.024 0.031,0.001 0.071,0.003 0.117,0.003 0.176,0 0.453,-0.024 0.764,-0.143 0.006,-0.003 0.013,-0.008 0.016,-0.015 l 0.763,-1.281 c 0.007,0.004 0.793,0.384 1.318,1.148 0.007,0.011 0.017,0.014 0.028,0.014 l 0.006,0 c 0.013,-0.002 0.024,-0.013 0.026,-0.026 l 0.215,-1.166 c 0.003,-0.015 -0.003,-0.031 -0.017,-0.036 l -0.305,-0.146 c -0.006,-0.003 -0.009,-0.004 -0.013,-0.004 l -0.003,0 c -0.057,0.004 -0.357,0.015 -0.739,0.015 -0.552,0 -1.278,-0.025 -1.691,-0.138 -0.028,-0.007 -0.031,-0.03 0.032,-0.037 0.391,-0.038 1.674,-0.173 2.241,-0.306 0.007,0.002 0.799,0.145 1.469,0.258 l 0.007,0 0.009,0 c 0.314,-0.075 0.651,-0.156 0.825,-0.197 l 0.04,-0.009 0.084,-0.004 c 0.373,0 1.165,0.35 2.495,0.994 0.003,10e-4 0.007,10e-4 0.011,0.002 0.053,0.004 0.104,0.006 0.153,0.006 0.419,0 0.742,-0.113 0.931,-0.325 0.011,-0.012 0.026,0.003 0.008,0.061 -0.037,0.128 -0.131,0.358 -0.348,0.554 -0.008,0.006 -0.013,0.017 -0.01,0.028 10e-4,0.011 0.006,0.02 0.016,0.026 0.281,0.154 0.803,0.453 1.341,0.772 l 0.044,0.028 0.101,0.108 c 0.004,0.008 0.014,0.011 0.023,0.011 0.001,0 0.003,-10e-4 0.004,-10e-4 0.445,-0.052 1.041,-0.252 1.397,-0.889 0.014,-0.027 0.04,-0.034 0.036,0.037 -0.029,0.312 -0.174,1.147 -0.903,1.386 -0.012,0.002 -0.021,0.012 -0.023,0.022 -0.003,0.012 0,0.023 0.008,0.031 l 0.644,0.711 c 0.006,0.006 0.016,0.01 0.026,0.01 l 0.001,0 c 0.193,-0.028 1.87,-0.332 2.347,-2.109 0.004,-0.012 -10e-4,-0.025 -0.013,-0.035 l -0.418,-0.329 c -0.005,-0.004 -0.012,-0.007 -0.023,-0.007 l -0.005,0 c -0.011,0.004 -0.017,0.012 -0.022,0.021 -0.14,0.325 -0.499,1.088 -0.92,1.396 -0.017,0.012 -0.041,0.006 -0.024,-0.03 0.104,-0.26 0.47,-1.224 0.395,-1.841 0,-0.008 -0.007,-0.016 -0.016,-0.022 l -2.168,-1.712 c 0,-0.012 0.044,-0.3 -0.058,-0.828 -0.003,-0.013 -0.013,-0.024 -0.025,-0.027 -0.003,-0.001 -0.008,-0.001 -0.009,-0.001 -0.01,0 -0.017,0.004 -0.026,0.011 l -0.452,0.498 -0.499,-0.547 c -0.011,-0.007 -0.563,-0.438 -0.843,-1.009 -0.005,-0.012 -0.019,-0.018 -0.03,-0.018 -0.003,0 -0.006,0.001 -0.009,0.002 -0.019,0.004 -0.027,0.02 -0.024,0.037 l 0.296,1.945 -0.049,-0.002 -1.002,-1.043 c -0.006,-0.008 -0.016,-0.011 -0.024,-0.011 -0.006,0 -0.011,0.001 -0.017,0.004 l -0.391,0.226 c -0.033,-0.014 -3.264,-1.457 -5.589,-2.537 -0.042,-0.02 0.022,-0.034 0.022,-0.034 l 1.623,0.286 0.573,0.345 c 0.005,0.002 0.011,0.005 0.017,0.005 0.027,0 0.104,10e-4 0.223,10e-4 0.563,0 2.469,-0.029 3.276,-0.408 0.013,-0.007 0.021,-0.023 0.016,-0.039 -0.003,-0.015 -0.016,-0.024 -0.034,-0.024 l -10e-4,0 c -0.341,0.045 -1.214,0.146 -2.009,0.146 -0.626,0 -1.079,-0.062 -1.344,-0.187 -0.024,-0.011 0.003,-0.047 0.003,-0.047 l 1.341,-0.2 0.455,0.171 c 0.004,10e-4 0.008,0.003 0.012,0.003 0.005,0 0.01,-0.002 0.014,-0.005 0.195,-0.097 1.935,-1.001 2.916,-2.511 0.009,-0.015 0.007,-0.036 -0.008,-0.045 -0.006,-0.004 -0.014,-0.007 -0.021,-0.007 m -0.488,-0.122 c -0.006,0 -0.012,0.001 -0.016,0.005 -0.534,0.318 -2.414,1.353 -4.306,1.353 -0.328,0 -0.643,-0.031 -0.94,-0.09 0,0 -1.391,-0.157 -1.392,-0.157 -0.015,0 -0.028,0.01 -0.032,0.026 -0.005,0.015 0.004,0.032 0.019,0.039 l 1.284,0.525 c 0.003,0.002 0.007,0.003 0.011,0.003 0.038,10e-4 0.181,0.008 0.398,0.008 0.492,0 1.466,-0.036 2.471,-0.286 1.112,-0.28 1.963,-0.74 2.528,-1.371 0.011,-0.01 0.011,-0.03 0.002,-0.042 -0.008,-0.008 -0.017,-0.013 -0.027,-0.013 m -10.944,-15.105 c -0.016,0 -0.027,0.011 -0.031,0.025 -0.198,0.738 -1.184,4.511 -1.104,6.434 -0.002,0.014 -0.247,1.502 -0.869,2.603 -0.004,0.009 -0.004,0.019 -0.001,0.029 0.316,0.812 0.678,1.586 1.075,2.3 0.006,0.011 0.017,0.017 0.03,0.017 0,0 0,0 0.002,-10e-4 0.013,0 0.025,-0.01 0.027,-0.022 0.337,-0.999 0.861,-2.329 1.471,-3 0.008,-0.006 0.01,-0.013 0.01,-0.02 0.006,-0.243 0.188,-5.95 -0.577,-8.342 -0.007,-0.013 -0.017,-0.023 -0.032,-0.023 l -10e-4,0 z m 6.801,-1.79 c -0.013,0 -0.023,0.007 -0.028,0.018 -0.22,0.41 -1.334,2.537 -1.673,4.17 -0.004,0.016 0.004,0.032 0.021,0.039 0.003,0 0.008,0.002 0.01,0.002 0.013,0 0.025,-0.008 0.03,-0.019 0.357,-0.682 1.559,-2.938 2.057,-3.36 0.012,-0.01 0.014,-0.026 0.008,-0.04 l -0.395,-0.791 c -0.006,-0.01 -0.015,-0.018 -0.03,-0.019 z m -0.393,-0.508 c -0.004,0 -0.009,0.002 -0.014,0.004 -0.196,0.102 -0.696,0.348 -1.103,0.42 -0.009,10e-4 -0.018,0.009 -0.023,0.019 l -0.709,1.63 c -0.006,0.008 -0.003,0.023 0.003,0.033 0.007,0.008 0.017,0.013 0.028,0.013 0.001,0 0.003,0 0.004,-0.001 0.187,-0.033 0.642,-0.129 0.852,-0.335 0.003,-0.003 0.005,-0.006 0.006,-0.008 l 0.986,-1.725 c 0.007,-0.013 0.004,-0.029 -0.004,-0.039 -0.008,-0.007 -0.017,-0.011 -0.026,-0.011 m 0.416,-1.52 c -0.306,0 -0.661,0.289 -0.798,0.414 -0.01,0.009 -0.013,0.021 -0.01,0.035 0.003,0.013 0.015,0.022 0.026,0.023 0.246,0.035 1.056,0.192 1.245,0.717 0.005,0.014 0.017,0.023 0.032,0.023 l 0.004,0 c 0.014,-0.002 0.027,-0.015 0.028,-0.031 0.026,-0.281 0.03,-0.792 -0.245,-1.067 -0.076,-0.075 -0.17,-0.114 -0.282,-0.114 m -4.409,17.176 2.783,-3.051 -0.009,0.804 -1.795,1.533 c -0.009,0.009 -0.012,0.018 -0.011,0.029 0.002,0.011 0.008,0.021 0.017,0.026 0.082,0.048 0.294,0.155 0.641,0.239 0.048,0.011 0.086,0.046 0,0.059 -0.333,0.06 -1.123,0.213 -1.573,0.406 -0.067,0.029 -0.053,-0.045 -0.053,-0.045 m 9.54,-17.801 -0.009,0 c -0.015,0.006 -0.026,0.021 -0.024,0.037 0.068,0.641 0.171,1.803 0.064,2.404 l -2.902,1.476 c -0.003,0 -1.002,-0.023 -1.003,-0.023 -0.009,0 -0.019,0.004 -0.023,0.011 -0.101,0.099 -2.439,2.458 -3.013,5.022 -0.003,0.012 0.002,0.027 0.012,0.033 0.007,0.005 0.013,0.008 0.021,0.008 0.006,0 0.01,-0.002 0.015,-0.004 l 0.692,-0.367 c 0.006,-0.003 0.011,-0.007 0.014,-0.013 l 1.111,-1.95 c 0.008,-0.007 0.823,-0.792 1.729,-0.792 0.513,0 0.959,0.247 1.326,0.733 l -3.667,2.898 c -0.004,0.002 -0.008,0.004 -0.008,0.006 -0.133,0.197 -3.281,4.818 -3.813,6.637 -0.004,0.014 0.002,0.028 0.013,0.036 0.006,0.004 0.014,0.007 0.018,0.007 0.008,0 0.014,-0.002 0.021,-0.006 0.219,-0.148 0.753,-0.527 0.941,-0.829 0.002,-0.002 0.003,-0.006 0.004,-0.01 0.017,-0.079 0.433,-1.919 1.848,-1.919 0.196,0 0.404,0.035 0.62,0.103 -0.148,0.158 -3.628,3.859 -4.945,4.781 -0.015,0.01 -0.019,0.027 -0.012,0.042 0.006,0.012 0.018,0.018 0.029,0.018 0.003,0 0.008,-0.001 0.012,-0.001 l 0.612,-0.205 c 0,0 0.067,-0.002 0.042,0.029 -0.092,0.115 -0.295,0.365 -0.458,0.527 -0.013,0.01 -0.015,0.028 -0.005,0.041 0.006,0.009 0.016,0.016 0.028,0.016 0.003,0 0.006,-0.002 0.012,-0.004 0.544,-0.217 2.408,-0.928 3.467,-0.928 0.05,0 0.079,0.042 -0.006,0.088 -0.514,0.27 -2.155,1.114 -2.848,1.265 -0.018,0.005 -0.029,0.018 -0.029,0.034 0,0.015 0.01,0.029 0.026,0.031 0.165,0.044 0.497,0.114 0.808,0.114 0.109,0 0.211,-0.008 0.3,-0.026 l 0.418,0.33 c 0.006,0.006 0.013,0.009 0.019,0.009 l 0.002,0 c 0.271,-0.009 2.422,-0.086 3.526,-0.637 0.144,-0.072 0.267,-0.126 0.048,0.033 -0.466,0.336 -1.456,0.877 -3.148,1.02 -0.018,0.002 -0.033,0.017 -0.033,0.034 0,0.018 0.015,0.032 0.031,0.033 0.334,0.032 0.865,0.07 1.486,0.07 1.386,0 3.311,-0.188 4.604,-1.083 0.029,-0.02 0.787,-0.511 1.302,-1.807 0.004,-0.005 0.005,-0.011 0.004,-0.016 -0.185,-1.143 -0.289,-2.1 -0.313,-2.847 -0.058,-1.946 1.786,-9.39 1.863,-9.706 0.002,-0.002 0.002,-0.006 0.002,-0.008 0.001,-0.158 0.012,-1.61 -0.44,-4.006 -0.002,-0.004 -0.004,-0.007 -0.006,-0.01 -0.149,-0.223 -0.264,-0.454 -0.355,-0.706 -0.005,-0.014 -0.018,-0.023 -0.03,-0.023 m -4.45,-0.057 c -0.007,0 -0.014,10e-4 -0.02,0.006 -0.013,0.008 -0.014,0.021 -0.013,0.035 l 0.242,1.007 c 0.002,0.005 0.007,0.013 0.012,0.018 0.088,0.067 0.849,0.673 1.028,1.278 0.004,0.014 0.016,0.024 0.031,0.024 l 0.004,0 c 0.018,-10e-4 0.028,-0.015 0.029,-0.032 0.03,-0.592 -0.099,-1.682 -1.297,-2.332 -0.004,-0.004 -0.009,-0.004 -0.016,-0.004 m -5.613,-2.668 c -0.012,0 -0.022,0.008 -0.029,0.018 l -9.674,19.655 5.491,-12.399 c 0.005,-0.016 0,-0.035 -0.019,-0.042 -0.004,-0.003 -0.006,-0.004 -0.013,-0.004 -0.011,0 -0.026,0.007 -0.029,0.019 l -8.804,17.895 c -0.004,0.008 -0.005,0.018 -0.002,0.026 0.004,0.009 0.013,0.015 0.016,0.02 l 1.189,0.575 c 0,0 0.004,0 0.007,0.002 l 0.084,0.021 c 0.004,0.001 0.005,0.001 0.012,0.001 0.008,0 0.021,-0.006 0.025,-0.017 0.296,-0.597 4.494,-9.224 6.236,-12.875 0.052,-0.109 5.149,-10.881 5.542,-12.855 0.005,-0.017 -0.005,-0.031 -0.02,-0.038 -0.004,0 -0.009,-0.002 -0.012,-0.002 m 1.576,-2.388 c -0.017,0 -0.027,0.01 -0.032,0.023 l -0.952,2.821 -0.522,4.007 c -0.003,0.003 -0.003,0.007 0,0.009 0.036,0.227 0.913,5.545 0.826,6.496 -0.027,0.035 -0.701,0.885 -1.25,1.146 -0.013,0.004 -0.018,0.016 -0.019,0.029 0,0.011 0.004,0.024 0.017,0.031 0.058,0.032 0.146,0.094 0.258,0.176 0,0.019 -0.185,1.988 -0.355,2.803 -0.116,0.532 -1.144,2.476 -1.99,4.013 -0.006,0.011 -0.006,0.023 0,0.034 0.178,0.283 0.322,0.495 0.414,0.622 0.005,0.011 0.016,0.015 0.026,0.015 l 10e-4,0 c 0.012,0 0.021,-0.007 0.028,-0.016 0.38,-0.594 0.938,-1.351 1.487,-1.676 0.032,-0.019 0.043,0.064 0.043,0.064 l -0.993,2.333 c -0.004,0.015 0,0.032 0.016,0.043 0.004,0.002 0.011,0.004 0.017,0.004 0.008,0 0.019,-0.004 0.025,-0.013 0.419,-0.517 1.423,-1.846 1.666,-3.024 0.293,-1.428 2.569,-9.218 2.667,-9.549 0.003,-0.01 0.001,-0.023 -0.008,-0.03 -0.008,-0.007 -0.014,-0.013 -0.024,-0.013 -0.002,0 -0.004,0 -0.006,0.001 -0.102,0.021 -0.367,0.068 -0.638,0.068 -0.45,0 -0.728,-0.126 -0.802,-0.362 l 0.249,-0.971 c 0.001,-0.003 0.001,-0.004 0.001,-0.007 l -0.117,-9.043 c -10e-4,-0.017 -0.012,-0.03 -0.029,-0.034 l -0.004,0 z m 5.364,-4.547 c -0.014,0 -0.025,0.008 -0.029,0.019 -0.362,0.866 -0.803,1.923 -1.026,2.436 -0.285,0.652 -0.431,2.364 -0.48,3.07 0,0.016 0.011,0.031 0.029,0.035 10e-4,0 0.003,0.001 0.004,0.001 0.016,0 0.03,-0.012 0.033,-0.026 0.182,-0.728 0.647,-2.483 1.024,-3.08 0.248,-0.395 0.56,-1.215 0.779,-1.834 10e-4,-0.007 10e-4,-0.018 0,-0.026 -0.112,-0.222 -0.217,-0.422 -0.303,-0.579 -0.006,-0.01 -0.018,-0.016 -0.03,-0.016 l -10e-4,0 z m -0.809,-2.785 c -0.004,0 -0.008,0 -0.01,0.001 -0.403,0.143 -1.225,0.287 -1.317,0.303 -0.007,0.002 -0.014,0.005 -0.019,0.009 -0.49,0.477 -0.645,1.624 -0.681,1.964 -0.002,0.014 0.006,0.028 0.018,0.034 0.004,0.002 0.011,0.003 0.015,0.003 0.009,0 0.018,-0.002 0.024,-0.009 l 1.833,-1.775 c 0.159,0.819 -0.819,1.517 -1.015,1.65 -0.008,0.005 -0.015,0.013 -0.015,0.022 -0.002,0.01 0.001,0.019 0.007,0.026 0.255,0.293 0.7,0.353 1.029,0.353 0.176,0 0.314,-0.018 0.351,-0.023 0.009,-0.002 0.017,-0.005 0.021,-0.012 0.224,-0.257 0.363,-0.562 0.416,-0.908 0,-0.064 -0.004,-0.127 -0.012,-0.204 -0.002,-0.014 -0.014,-0.025 -0.026,-0.028 -0.003,0 -0.004,-0.003 -0.006,-0.003 -0.013,0 -0.024,0.009 -0.031,0.019 -0.243,0.463 -0.804,0.802 -0.828,0.815 l 0.652,-1.271 c 0.002,-0.003 0.002,-0.007 0.002,-0.011 0.016,-0.141 -0.023,-0.356 -0.11,-0.622 0,-0.004 -10e-4,-0.006 -0.003,-0.009 -0.111,-0.165 -0.21,-0.264 -0.272,-0.318 -0.006,-0.005 -0.015,-0.006 -0.023,-0.006 m 0.059,-1.186 c -0.006,0 -0.01,0.001 -0.018,0.002 -0.468,0.229 -0.949,0.411 -1.424,0.544 -0.015,0.004 -0.023,0.015 -0.026,0.027 -0.002,0.013 0.004,0.026 0.015,0.034 0.179,0.121 0.515,0.279 1.104,0.337 l 0.009,0 c 0.005,0 0.017,-0.004 0.024,-0.009 l 0.224,-0.238 0.499,-0.338 c 0.008,-0.006 0.016,-0.018 0.016,-0.028 0,-0.011 -0.008,-0.021 -0.019,-0.028 -0.13,-0.076 -0.273,-0.186 -0.384,-0.293 -0.003,-0.008 -0.012,-0.01 -0.02,-0.01 m -8.432,-0.348 c -0.009,0 -0.019,0.004 -0.023,0.011 l -0.145,0.154 -0.216,0.325 c -0.007,0.011 -0.007,0.023 -0.003,0.032 0.004,0.01 0.011,0.018 0.025,0.02 l 0.345,0.079 c 0,0.005 0,0.017 0.002,0.03 l 0,0.009 c 0.006,0.065 0.012,0.172 -0.018,0.275 -0.003,0.01 -10e-4,0.02 0.004,0.027 0.006,0.008 0.01,0.014 0.022,0.016 l 0.349,0.069 0.1,0.282 c 0.006,0.011 0.015,0.02 0.031,0.02 l 0.004,0 0.279,-0.04 0.08,0.241 c 0.005,0.013 0.013,0.021 0.027,0.023 l 0.372,0.062 -0.349,1.309 -0.772,0.044 c -0.01,10e-4 -0.017,0.004 -0.021,0.008 -0.59,0.56 -1.086,1.617 -1.224,1.927 -0.006,0.013 -0.002,0.027 0.005,0.035 0.005,0.009 0.016,0.013 0.025,0.013 0.004,0 0.008,-0.001 0.013,-0.003 l 0.665,-0.236 c 0.075,0.661 -0.591,1.135 -0.797,1.265 -0.011,0.007 -0.018,0.02 -0.017,0.034 0.006,0.015 0.016,0.026 0.03,0.027 0.069,0.012 0.143,0.018 0.22,0.018 1.004,0 2.296,-1.026 2.31,-1.037 0,1.556 -1.34,4.072 -1.352,4.097 l -0.816,0.816 c -0.006,0.007 -0.009,0.019 -0.006,0.031 l 0.417,1.708 c 0.003,0.015 0.017,0.024 0.031,0.024 l 0.003,0 c 0.017,-0.002 0.028,-0.014 0.03,-0.031 0.035,-0.598 0.184,-1.296 0.19,-1.326 0.659,-0.434 1.2,-1.374 1.261,-1.479 l 0,-0.008 c 0.272,-1.105 1.411,-2.2 1.541,-2.32 0.005,-0.006 0.009,-0.015 0.01,-0.021 0.113,-1.744 1.317,-3.157 1.327,-3.17 0.843,-0.387 1.641,-1.651 1.946,-2.177 0.007,-0.011 0.007,-0.024 -10e-4,-0.035 -0.005,-0.01 -0.015,-0.015 -0.026,-0.015 l -0.006,0 c -0.274,0.043 -0.561,0.071 -0.856,0.086 -0.004,0 -0.009,0.002 -0.013,0.004 -0.205,0.106 -0.357,0.203 -0.399,0.231 -0.006,0.004 -0.012,0.01 -0.014,0.018 -0.342,1.186 -2.198,2.108 -2.407,2.21 -0.006,10e-4 -0.013,0.007 -0.016,0.014 -0.538,1.003 -1.898,1.424 -1.913,1.427 -0.643,-0.773 0.275,-1.776 0.282,-1.786 l 0.633,-0.064 c 0.015,-0.002 0.025,-0.01 0.029,-0.021 l 0.475,-1.202 c 0.355,0.039 0.706,0.412 0.772,0.487 0.006,0.007 0.016,0.011 0.024,0.011 l 0.007,0 c 1.173,-0.25 1.601,-1.041 1.706,-1.278 0.002,-0.009 0.002,-0.021 -0.003,-0.031 -0.005,-0.007 -0.016,-0.014 -0.026,-0.016 -0.042,-0.002 -0.081,-0.004 -0.123,-0.007 l -0.05,0.002 c -0.612,0 -1.231,-0.103 -1.834,-0.307 -0.747,-0.208 -1.46,-0.513 -2.129,-0.907 -0.004,-0.003 -0.011,-0.004 -0.017,-0.004 m 9.61,-0.327 c -0.006,0 -0.014,0.002 -0.018,0.006 -0.248,0.171 -0.496,0.325 -0.739,0.459 -0.008,0.004 -0.014,0.011 -0.017,0.02 -0.002,0.007 0,0.018 0.003,0.025 0.08,0.137 0.182,0.228 0.311,0.276 0.003,10e-4 0.007,10e-4 0.011,10e-4 0.005,0 0.011,0 0.015,-0.002 l 0.282,-0.145 0.531,-0.247 c 0.01,-0.004 0.018,-0.016 0.018,-0.027 0.003,-0.011 -0.003,-0.022 -0.013,-0.03 -0.094,-0.07 -0.253,-0.218 -0.359,-0.326 -0.008,-0.007 -0.016,-0.01 -0.025,-0.01"
                 style="fill:#77aae0;fill-opacity:1;fill-rule:nonzero;stroke:none"
                 id="path7192"
                 inkscape:connector-curvature="0" />
            </g>
            <path
               inkscape:connector-curvature="0"
               id="path7196"
               style="fill:#d21c2e;fill-opacity:1;fill-rule:nonzero;stroke:#d21c2e;stroke-width:2.17611694;stroke-opacity:1"
               d="m 1353.4158,1766.1202 12.8174,-39.4312 -33.534,24.3724 -33.5448,-24.3724 12.8282,39.4312 -33.534,24.3507 41.4224,0 12.8282,39.4421 12.8065,-39.4421 41.455,0 -33.5449,-24.3507 z m -20.7166,84.5312 c -41.4877,0 -75.1195,-33.6319 -75.1195,-75.1087 0,-41.4658 33.6318,-75.1195 75.1195,-75.1195 41.4659,0 75.0978,33.6537 75.0978,75.1195 0,41.4768 -33.6319,75.1087 -75.0978,75.1087 m 72.9543,38.909 15.4722,-11.1417 c 10.0754,12.4583 19.7918,25.2647 29.1382,38.4846 -14.852,1.3818 -29.7148,2.5678 -44.6104,3.4165 l 0,-30.7594 z m 0,-29.6931 c 0.5549,0.6528 1.0881,1.3165 1.643,1.9476 -0.5331,-0.6311 -1.0989,-1.2295 -1.643,-1.8715 l 0,-0.076 z m -218.6127,325.5253 c -1.1207,2.3067 -2.2305,4.5916 -3.275,6.8439 -23.1213,-2.7093 -46.1337,-5.9952 -69.07,-9.9557 l 0,58.494 c -0.2611,-0.022 -0.5005,-0.087 -0.7725,-0.087 -5.9082,0 -11.3811,3.3186 -14.1339,8.4977 -8.1278,-1.5124 -16.2447,-3.0792 -24.3508,-4.733 5.103,-22.6425 10.8045,-44.7519 17.0825,-66.3281 7.388,1.4036 14.765,2.8507 22.1747,4.1455 l 0,-69.6139 c 24.0244,4.1346 48.1684,7.5837 72.345,10.3583 l 0,62.3784 z m 213.8688,-264.866 c 1.5777,-0.076 3.1663,-0.1088 4.7439,-0.2068 l 0,10.3801 c -1.7409,-3.9061 -3.3185,-7.3009 -4.7439,-10.1733 m -147.3884,69.0046 c -22.1637,-1.3818 -44.3493,-3.2533 -66.4804,-5.7885 l 0,-24.1657 c 8.9439,-14.6344 18.2903,-28.8771 28.0393,-42.6846 6.4739,0.6094 12.9914,1.1425 19.4762,1.6865 -3.1336,8.9112 -3.1988,16.1903 -3.1988,16.7561 l 0,3.4818 c 0,3.9279 3.0248,7.203 6.9418,7.5076 l 3.4709,0.2502 c 1.1642,0.1415 5.9081,1.3384 13.0567,3.3622 -2.3502,13.0675 -2.0021,28.6159 -1.3057,39.5944 m -15.1349,68.7435 c -1.3927,9.3247 -2.2849,18.6276 -2.644,27.8761 -6.6371,13.2743 -13.2634,26.6248 -19.7156,39.7577 -9.6728,-0.8814 -19.3457,-1.8062 -28.9859,-2.8943 l 0,-69.5487 c 17.0934,1.9477 34.2195,3.5253 51.3455,4.8092 m -97.6968,-11.1199 c 10.2387,-22.4793 21.2716,-44.1861 33.1205,-65.1203 4.3849,0.5549 8.8133,1.2077 13.2308,1.7082 l 0,69.6902 c -15.4939,-1.7736 -30.9226,-3.9388 -46.3513,-6.2781 m 337.7007,-87.4038 c 4.472,7.3444 8.8895,14.765 13.1438,22.2944 -4.3849,0.5548 -8.7589,1.1968 -13.1438,1.6973 l 0,-23.9917 z m 61.7474,572.1773 -1.4254,-4.2325 c -0.8596,-2.6005 -3.0466,-4.5046 -5.7667,-5.016 -0.4461,-0.076 -0.9031,-0.1196 -1.3383,-0.1196 -2.0456,0 -3.9932,0.816 -5.4077,2.2849 -2.5243,-1.9041 -5.5382,-3.5036 -8.8894,-4.744 -0.076,-0.2502 -0.1741,-0.5005 -0.272,-0.7507 1.2512,-1.2186 2.0782,-2.8398 2.2414,-4.6787 l 2.3067,-24.9818 3.2424,-8.9329 c 0.2938,-0.7617 0.4461,-1.556 0.457,-2.372 l 0.4025,-13.5681 c 8.3563,-1.273 16.7235,-2.5243 25.0798,-3.9605 l 0,69.3963 c -3.5362,0.6093 -7.0833,1.099 -10.6303,1.6756 m -79.5045,-230.973 -29.9433,-30.0413 -0.2829,-4.1999 c 15.9944,-1.2295 32.0324,-2.644 47.9833,-4.461 l 0,51.4107 -17.7571,-12.7085 z m 46.7321,59.2992 c -0.2067,-0.4244 -0.5984,-1.1969 -0.8922,-1.5995 l -19.8353,-27.789 c 21.413,-2.5895 42.8151,-5.6252 64.1302,-9.3137 l 0,69.603 c -10.6086,1.8389 -21.2171,3.4709 -31.8584,5.0377 -5.1247,-21.4347 -11.1199,-35.0028 -11.5443,-35.9385 m -67.1767,-303.0678 c -1.0445,-10.478 -3.101,-24.8295 -7.2247,-42.5649 -2.187,-9.3464 -4.461,-17.9856 -6.7568,-26.1134 17.4198,-1.273 34.807,-2.7745 52.1832,-4.7657 l 0,69.6902 c -12.7194,1.4471 -25.4496,2.6875 -38.2017,3.7538 m -325.4927,53.3693 0,2.0999 c -0.2394,-0.043 -0.457,-0.1088 -0.7181,-0.1414 0.2611,-0.6529 0.457,-1.2948 0.7181,-1.9585 m 363.6944,-57.0905 c 15.4614,-1.7735 30.89,-3.9279 46.2861,-6.2672 2.7201,5.9626 5.3967,11.9469 7.9972,17.9965 6.376,14.8955 12.3821,30.1283 18.0944,45.6767 l 0,1.7844 c -24.0461,4.1346 -48.1684,7.5838 -72.3777,10.3583 l 0,-69.5487 z m 72.3777,407.3909 0,-69.7011 c 20.7275,-3.5688 41.3789,-7.7578 61.9649,-12.3603 2.1435,18.1379 3.9932,36.5479 5.473,55.2081 0.3481,4.3087 0.6419,8.7153 0.9466,13.1002 -22.6643,5.19 -45.4591,9.8034 -68.3845,13.7531 m 39.1375,-216.3931 c 4.9397,21.8047 9.3464,44.0664 13.1872,66.8068 -17.398,3.7538 -34.8178,7.2682 -52.3247,10.2822 l 0,-69.6576 c 13.0676,-2.2631 26.1352,-4.7548 39.1375,-7.4314 M 1478.3902,2192.65 c -18.671,2.1217 -37.353,3.732 -56.0785,5.0377 -0.6963,-5.6579 -1.2404,-11.305 -1.3709,-16.2556 -0.2829,-8.6283 4.0584,-31.5646 8.8459,-53.9133 16.2012,-1.2404 32.4241,-2.6549 48.6035,-4.5046 l 0,69.6249 c 24.2093,-2.7637 48.3316,-6.2346 72.3777,-10.3692 l 0,-69.614 c 0.185,-0.033 0.4026,-0.087 0.6093,-0.1197 7.7796,21.2716 14.9173,43.1633 21.4456,65.6099 -7.3552,1.4036 -14.6888,2.8725 -22.0549,4.1347 l 0,69.6139 c -24.0461,4.1347 -48.1684,7.6056 -72.3777,10.3584 l 0,-69.6031 z m -363.6944,337.7877 c -24.0461,-4.1673 -48.0269,-8.9874 -71.8663,-14.5256 l 0,-0.7943 c 0.6637,-23.1974 1.7627,-45.9596 3.3295,-68.058 22.7622,5.2118 45.6005,9.836 68.5368,13.7966 l 0,69.5813 z m 174.9489,-99.0568 c 0.6094,1.9585 1.371,3.8517 2.1762,5.6143 -3.1119,-0.359 -7.4968,-1.8388 -10.9133,-6.8982 l -0.7725,-1.1643 c -1.0228,-1.5015 -2.546,-2.5787 -4.3087,-3.0465 l -16.038,-4.2435 0,-13.8945 c 4.2652,0.2612 8.5522,0.3373 12.8173,0.5441 4.9181,11.2831 12.5889,19.1715 17.039,23.0886 m -22.0114,46.3948 c -2.6113,-0.1197 -5.2227,-0.185 -7.8449,-0.3264 l 0,-8.1822 c 2.6005,3.1336 5.2118,5.9625 7.8449,8.5086 m -224.8473,38.1364 0.043,0 0,0.2394 -0.043,0 0,-0.2394 z m 217.0024,31.0423 c -12.8282,-0.7181 -25.6346,-1.6429 -38.4411,-2.731 -11.4246,-1.001 -22.8819,-2.1217 -34.3065,-3.4383 l 0,-69.5487 c 24.1984,2.7528 48.473,4.8201 72.7476,6.2129 l 0,69.5051 z m 201.3126,-143.6999 c 3.3947,6.8766 7.4206,14.6127 12.0666,23.2627 -0.022,0.044 -0.2612,0.8052 -0.2612,0.8052 -0.3046,0.8813 -0.4352,1.8497 -0.3917,2.8072 0,0 0.054,0.7616 0.022,0.8052 l -2.3611,1.6212 c -1.6539,1.1315 -2.7854,2.8724 -3.1663,4.8309 -0.3481,1.9585 0.087,3.9932 1.2078,5.6579 l 2.1979,3.1663 2.0999,2.8834 0.3156,9.8578 c -2.3611,4.4719 -3.4383,9.2158 -3.8082,10.7609 l -0.3156,1.632 c -0.043,0.2938 -0.043,0.5767 -0.065,0.8487 -20.9451,2.2414 -41.9555,4.0476 -62.9877,5.2554 l 0,-69.7011 c 18.5079,-1.0554 36.9831,-2.644 55.4475,-4.4937 m -63.2597,-552.2005 -0.022,0 c -0.1523,-0.1632 -0.3047,-0.3373 -0.4461,-0.5005 0.1632,0.1632 0.2938,0.3264 0.4679,0.5005 m -19.1499,557.0424 0.3591,-1.1751 c 0.4461,-1.4906 0.4243,-3.1118 -0.098,-4.5916 l -3.4709,-10.0863 0.7399,-3.188 c 0.2176,-0.9793 0.2285,-1.9912 0.065,-2.9704 l -0.1305,-0.7508 c -5.1792,-29.3014 -6.1693,-31.8366 -6.5393,-32.7832 -0.359,-0.8813 -1.2077,-3.003 -5.3967,-8.4433 l 0.7943,-4.3522 c 10.0101,-0.2394 19.9876,-0.6746 29.9977,-1.1643 4.0694,1.9694 5.7015,2.7528 6.9963,3.1881 0.6854,0.3481 1.9802,1.0554 3.6449,2.002 l 0,63.9669 c -9.0744,0.5223 -18.127,0.8378 -27.2232,1.1643 0.1306,-0.3591 0.2176,-0.642 0.2612,-0.8161 m -43.6094,87.9369 c 4.1999,-3.558 8.0081,-10.4345 9.9231,-14.2209 l 0.6854,-1.371 c 0.1633,-0.3482 0.2721,-0.7507 0.3809,-1.1207 2.5243,-0.022 5.0486,-0.065 7.5729,-0.098 l 1.6756,0.457 c 0.5984,0.1849 1.2403,0.2829 1.8497,0.2829 3.3512,1.6538 6.191,2.5787 6.8765,2.7963 l 3.8082,1.1968 c 0.7072,0.2285 1.4906,0.3482 2.2414,0.3482 1.273,0 2.5352,-0.3155 3.6885,-0.9575 1.7627,-1.0119 3.0792,-2.7092 3.5906,-4.7004 9.4117,-0.3264 18.8452,-0.6637 28.2786,-1.1968 l 0,69.4072 c -24.2854,1.4036 -48.6035,2.1108 -72.9434,2.1326 l 0,-51.3564 c 0.6311,-0.272 1.2186,-0.6202 1.7518,-1.0554 l 0.6202,-0.544 z m -216.0884,-219.7987 c -0.4135,1.0337 -0.7399,2.0891 -1.0119,3.188 l -0.1633,0.6746 c -0.2611,0.9358 -0.3046,1.915 -0.1849,2.8616 l 4.6242,34.992 c 0.1197,0.8704 0.3917,1.7191 0.7617,2.4916 l 0.8378,1.5886 -0.3917,0.914 c -2.916,-0.4788 -5.832,-0.8814 -8.7698,-1.3927 l 0,-48.1902 4.2979,2.8725 z m 140.5227,-38.5281 c -11.1091,-8.1496 -22.9798,-8.7915 -26.3637,-8.7915 -0.9466,0 -1.4797,0.043 -1.4797,0.043 l -0.8705,0.054 c -1.1207,0.087 -2.2305,0.4243 -3.2206,0.9901 l -3.1771,1.8171 -6.6263,-0.5005 c 4.8745,-9.9014 10.5977,-21.5327 16.7778,-34.263 8.4107,0.6419 16.8105,1.3274 25.2321,1.7953 l 0,-2.0347 c 0.3482,0.7181 0.7399,1.4254 1.0772,2.1108 -0.3591,-0.022 -0.729,-0.022 -1.0772,-0.043 l 0,39.0504 -0.272,-0.2285 z m 0.272,-348.8751 0.4135,0.3591 c -0.1197,0.087 -0.2829,0.1849 -0.4135,0.272 l 0,-0.6311 z m -145.0926,454.123 -3.0792,2.5243 c -2.0782,1.7191 -3.0792,4.4501 -2.5896,7.1267 l 0.3591,2.0238 c -4.7331,4.1673 -7.66,9.0635 -8.3128,10.1951 l -0.6855,1.2186 c -0.8922,1.5669 -1.186,3.4166 -0.8269,5.1901 l 0.2611,1.3818 c 1.5342,7.7252 0,12.9588 -0.011,13.0132 l -0.4134,1.2404 c -0.1415,0.4461 -0.1306,0.9357 -0.185,1.3927 -15.5919,-2.9051 -31.1402,-6.0278 -46.6342,-9.4987 2.7093,-22.9363 5.9299,-45.4265 9.6946,-67.4923 17.4089,3.7429 34.8723,7.2574 52.4227,10.2822 l 0,21.4021 z m 145.0926,-483.1959 0,-0.043 c 1.2295,-1.4145 2.5026,-2.8181 3.7647,-4.2217 -1.2621,1.4145 -2.5352,2.829 -3.7647,4.2652 m -78.4381,469.976 -0.5005,-2.1652 c 0.3373,-0.3591 0.6202,-0.6964 0.9466,-1.0663 l 0.5767,-0.6855 c 0.7181,-0.914 1.2512,-2.0129 1.4906,-3.1663 l 0.185,-0.9031 c 1.2839,-1.0771 2.2522,-2.2849 2.9921,-3.547 l 0,13.7095 c -1.8714,-0.2176 -3.7429,-0.4896 -5.647,-0.7072 0,-0.5005 0.054,-0.9902 -0.043,-1.4689 m -59.6583,73.2154 c 1.8171,-0.4896 3.3621,-1.6212 4.3958,-3.1989 l 0.8052,-1.2295 c 0,0 1.5885,-2.1544 4.9506,-4.6569 18.3773,2.8942 36.7546,5.5491 55.1972,7.6599 l 0,69.7119 c -24.1766,-2.7745 -48.3206,-6.2345 -72.345,-10.38 l 0,-56.0568 6.9962,-1.8497 z m 138.0964,-64.8156 0,69.6139 c -24.2746,-1.3818 -48.5492,-3.4491 -72.7476,-6.2237 l 0,-69.6139 c 24.1984,2.7746 48.473,4.8528 72.7476,6.2237 m 11.6749,-13.0132 c 0.3808,0.065 1.0881,0.1415 1.4689,0.1415 3.917,0 10.7065,0.5114 16.0488,0.9792 0.1197,1.2513 0.2394,2.6222 0.3264,4.0476 -0.1088,0.033 -3.6123,0.5549 -3.6123,0.5549 -3.6885,0.5549 -6.4087,3.7103 -6.4087,7.4423 l 0,0.6855 c -6.4957,-0.272 -13.0023,-0.4679 -19.498,-0.8378 l 0,-15.6136 c 4.9942,1.4362 9.3029,2.2305 11.6749,2.6004" />
            <g
               id="g7198"
               transform="matrix(10.880585,0,0,10.880585,1455.0013,1769.8609)">
              <path
                 d="m 0,0 0,-0.359 -0.608,0 0,-1.668 -0.425,0 0,1.668 -0.608,0 0,0.359 L 0,0 z"
                 style="fill:#ffffff;fill-opacity:1;fill-rule:nonzero;stroke:none"
                 id="path7200"
                 inkscape:connector-curvature="0" />
            </g>
            <g
               id="g7202"
               transform="matrix(10.880585,0,0,10.880585,1472.3319,1769.8609)">
              <path
                 d="m 0,0 0.608,0 0,-2.027 -0.394,0 0,1.371 0,0.164 c 0.002,0.074 0.002,0.129 0.002,0.167 l -0.385,-1.702 -0.41,0 -0.383,1.702 c 0,-0.038 0,-0.093 0.004,-0.167 l 0,-0.164 0,-1.371 -0.395,0 0,2.027 0.617,0 0.368,-1.594 L 0,0 z"
                 style="fill:#ffffff;fill-opacity:1;fill-rule:nonzero;stroke:none"
                 id="path7204"
                 inkscape:connector-curvature="0" />
            </g>
          </g>
        </g>
      </g>
    </g>
  </g>
</svg>
